<svg width="512" height="512" viewBox="0 0 512 512" fill="none" xmlns="http://www.w3.org/2000/svg">
<g clip-path="url(#clip0_347_100)">
<path opacity="0.94" fill-rule="evenodd" clip-rule="evenodd" d="M242.5 -0.5C251.167 -0.5 259.833 -0.5 268.5 -0.5C284.82 3.15938 299.487 10.326 312.5 21C331.362 38.2334 346.196 58.4001 357 81.5C384.297 78.6477 410.797 82.1477 436.5 92C443.599 95.4491 450.432 99.2825 457 103.5C478.417 98.0427 493.417 105.376 502 125.5C506.082 142.257 501.249 155.757 487.5 166C488.038 182.656 485.205 198.822 479 214.5C472.883 228.735 465.716 242.401 457.5 255.5C471.085 275.676 480.585 297.676 486 321.5C487.426 329.359 487.926 337.192 487.5 345C504.597 359.222 507.764 376.055 497 395.5C486.347 408.331 473.013 412.331 457 407.5C436.664 421.216 414.164 428.716 389.5 430C378.5 430.333 367.5 430.667 356.5 431C343.322 459.178 323.989 482.178 298.5 500C288.93 505.298 278.93 509.131 268.5 511.5C259.833 511.5 251.167 511.5 242.5 511.5C226.18 507.841 211.513 500.674 198.5 490C179.936 473.19 165.269 453.524 154.5 431C127.732 432.458 101.732 428.792 76.5 420C68.5811 416.46 61.0811 412.294 54 407.5C32.6619 412.997 17.6619 405.664 8.99997 385.5C4.94369 369.669 9.27702 356.669 22 346.5C23.8527 313.106 34.3527 282.773 53.5 255.5C34.3522 228.226 23.8522 197.892 22 164.5C6.3105 151.014 3.3105 135.014 13 116.5C23.6482 102.952 37.3149 98.6184 54 103.5C75.0033 89.6108 98.1699 82.1108 123.5 81C133.744 80.1814 143.91 80.348 154 81.5C166.982 52.5247 186.482 29.0247 212.5 11C222.07 5.70194 232.07 1.86861 242.5 -0.5ZM245.5 17.5C263.938 15.5926 280.604 20.0926 295.5 31C313.52 45.1767 327.187 62.6767 336.5 83.5C308.767 87.1834 281.767 93.85 255.5 103.5C229.233 93.85 202.233 87.1834 174.5 83.5C184.619 60.1206 200.286 41.2873 221.5 27C229.191 22.7211 237.191 19.5544 245.5 17.5ZM124.5 98.5C131.841 98.3337 139.174 98.5003 146.5 99C135.96 125.324 128.293 152.491 123.5 180.5C102.149 198.351 82.6492 218.017 65 239.5C51.4729 218.585 43.3062 195.752 40.5 171C66.4902 168.675 78.3235 154.509 76 128.5C74.7181 123.936 72.8847 119.603 70.5 115.5C76.0223 111.571 82.0223 108.404 88.5 106C100.412 102.385 112.412 99.8854 124.5 98.5ZM364.5 99.5C390.817 96.7958 415.817 101.629 439.5 114C439.957 114.414 440.291 114.914 440.5 115.5C432.115 130.203 432.615 144.537 442 158.5C449.439 166.47 458.606 170.47 469.5 170.5C467.75 195.585 459.916 218.585 446 239.5C428.351 218.017 408.851 198.351 387.5 180.5C382.765 152.543 375.098 125.543 364.5 99.5ZM146.5 162.5C150.317 141.215 156.651 120.715 165.5 101C187.513 102.602 208.847 107.269 229.5 115C200.209 128.303 172.542 144.136 146.5 162.5ZM364.5 162.5C338.458 144.136 310.791 128.303 281.5 115C302.153 107.269 323.487 102.602 345.5 101C354.348 120.712 360.681 141.212 364.5 162.5ZM38.5 119.5C54.54 119.919 60.7066 127.919 57 143.5C49.376 153.829 40.376 155.162 30 147.5C22.4508 134.983 25.2841 125.649 38.5 119.5ZM464.5 119.5C474.823 118.408 481.656 122.741 485 132.5C486.15 142.359 481.983 148.859 472.5 152C456.43 152.041 450.263 144.208 454 128.5C456.468 124.199 459.968 121.199 464.5 119.5ZM254.5 123.5C296.028 140.003 334.194 162.003 369 189.5C376.333 233.5 376.333 277.5 369 321.5C334.43 348.716 296.597 370.716 255.5 387.5C214.403 370.716 176.57 348.716 142 321.5C136.505 287.713 135.171 253.713 138 219.5C138.518 209.355 139.851 199.355 142 189.5C176.454 162.515 213.954 140.515 254.5 123.5ZM119.5 207.5C120.156 208.622 120.489 209.955 120.5 211.5C119.112 226.131 118.445 240.798 118.5 255.5C118.67 271.535 119.17 287.535 120 303.5C103.837 288.845 89.3368 272.845 76.5 255.5C89.3732 238.288 103.706 222.288 119.5 207.5ZM390.5 207.5C406.959 221.955 421.626 237.955 434.5 255.5C421.663 272.845 407.163 288.845 391 303.5C393.166 271.503 393 239.503 390.5 207.5ZM64.5 271.5C82.4519 292.785 102.119 312.452 123.5 330.5C128.293 358.509 135.96 385.676 146.5 412C119.76 414.252 94.5929 409.086 71 396.5C71.7121 393.053 73.0455 389.719 75 386.5C80.0525 365.618 72.8858 350.784 53.5 342C49.2273 340.97 44.894 340.303 40.5 340C43.4368 315.355 51.4368 292.521 64.5 271.5ZM445.5 271.5C459.84 292.183 467.84 315.183 469.5 340.5C447.713 341.787 436.046 353.287 434.5 375C434.247 382.486 436.247 389.319 440.5 395.5C430.509 402.226 419.509 406.726 407.5 409C393.297 411.92 378.964 412.92 364.5 412C375.04 385.676 382.707 358.509 387.5 330.5C408.89 312.777 428.224 293.11 445.5 271.5ZM146.5 348.5C172.542 366.864 200.209 382.697 229.5 396C208.849 403.73 187.516 408.397 165.5 410C156.652 390.288 150.319 369.788 146.5 348.5ZM364.5 348.5C360.681 369.788 354.348 390.288 345.5 410C323.487 408.398 302.153 403.731 281.5 396C310.791 382.697 338.458 366.864 364.5 348.5ZM38.5 358.5C52.8332 358.331 59.3332 365.331 58 379.5C52.9068 390.532 44.7401 393.699 33.5 389C24.1576 381.273 23.1576 372.606 30.5 363C33.0993 361.205 35.7659 359.705 38.5 358.5ZM464.5 358.5C478.494 357.995 485.327 364.662 485 378.5C479.576 391.197 470.743 394.363 458.5 388C450.5 379.333 450.5 370.667 458.5 362C460.727 361.059 462.727 359.892 464.5 358.5ZM252.5 407.5C254.527 407.338 256.527 407.505 258.5 408C283.726 417.64 309.726 424.14 336.5 427.5C328.194 446.918 315.86 463.418 299.5 477C270.167 499 240.833 499 211.5 477C195.14 463.418 182.806 446.918 174.5 427.5C201.486 424.254 227.486 417.588 252.5 407.5Z" fill="white"/>
<path opacity="0.938" fill-rule="evenodd" clip-rule="evenodd" d="M208.5 195.5C216.125 194.06 220.958 197.06 223 204.5C236.667 237.5 250.333 270.5 264 303.5C265.279 313.22 261.113 317.053 251.5 315C250.069 314.535 248.903 313.701 248 312.5C243.736 302.541 239.569 292.541 235.5 282.5C220.511 281.334 205.511 281.167 190.5 282C186.338 291.816 182.171 301.65 178 311.5C174.146 315.671 169.646 316.504 164.5 314C161.682 310.662 160.849 306.829 162 302.5C176.195 268.914 190.195 235.248 204 201.5C205.332 199.34 206.832 197.34 208.5 195.5ZM212.5 228.5C207.846 239.812 203.179 251.145 198.5 262.5C208.149 263.665 217.816 263.832 227.5 263C222.595 251.367 217.595 239.867 212.5 228.5Z" fill="white"/>
<path opacity="0.944" fill-rule="evenodd" clip-rule="evenodd" d="M269.241 196.063C288.91 195.896 308.577 196.063 328.241 196.563C334.509 201.558 334.843 206.891 329.241 212.563C321.995 213.954 314.662 214.454 307.241 214.063C307.241 242.063 307.241 270.063 307.241 298.063C314.662 297.672 321.995 298.172 329.241 299.563C334.843 305.235 334.509 310.568 328.241 315.563C308.574 316.23 288.908 316.23 269.241 315.563C265.657 313.899 263.99 311.066 264.241 307.063C263.908 302.558 265.908 299.724 270.241 298.563C276.566 298.063 282.899 297.897 289.241 298.063C289.241 270.063 289.241 242.063 289.241 214.063C282.899 214.229 276.566 214.063 270.241 213.563C264.646 211.209 262.813 207.042 264.741 201.063C265.766 198.876 267.266 197.209 269.241 196.063Z" fill="white"/>
</g>
<defs>
<clipPath id="clip0_347_100">
<rect width="512" height="512" fill="white"/>
</clipPath>
</defs>
</svg>
