<svg width="58" height="58" viewBox="0 0 58 58" fill="none" xmlns="http://www.w3.org/2000/svg">
<path opacity="0.93" fill-rule="evenodd" clip-rule="evenodd" d="M8.09431 0C9.04636 0 9.99842 0 10.9505 0C15.6511 1.13134 18.2027 4.09554 18.605 8.89258C18.5228 11.2813 17.6851 13.3581 16.0915 15.123C16.777 15.8027 17.4625 16.4824 18.148 17.1621C18.2622 17.2377 18.3765 17.2377 18.4907 17.1621C21.2337 14.7884 24.4325 13.4857 28.0874 13.2539C28.1251 12.5325 28.0869 11.815 27.9731 11.1016C24.8684 10.156 23.4784 8.07917 23.8032 4.87109C24.4962 2.20119 26.2288 0.804051 29.0014 0.679688C31.7739 0.804051 33.5065 2.20119 34.1996 4.87109C34.5239 8.08008 33.134 10.1569 30.0296 11.1016C29.9158 11.815 29.8776 12.5325 29.9153 13.2539C33.5113 13.4912 36.6722 14.7561 39.3978 17.0488C39.5416 17.1601 39.6939 17.1978 39.8547 17.1621C40.5402 16.4824 41.2257 15.8027 41.9112 15.123C39.4823 12.3325 38.854 9.17945 40.0261 5.66406C41.3674 2.53921 43.7094 0.651193 47.0523 0C48.0043 0 48.9564 0 49.9084 0C54.6059 1.12848 57.1573 4.09267 57.5629 8.89258C57.0482 14.3873 54.0207 17.3892 48.4803 17.8984C46.597 17.8165 44.8643 17.3068 43.2821 16.3691C42.5378 17.0882 41.8143 17.8246 41.1115 18.5781C41.845 19.5135 42.5114 20.4953 43.1108 21.5234C43.3116 22.2589 43.0451 22.712 42.311 22.8828C41.9812 22.8372 41.7146 22.6862 41.5113 22.4297C38.4022 17.3097 33.8133 14.8742 27.7447 15.123C22.2332 15.7949 18.2917 18.608 15.9202 23.5625C13.6498 29.5251 14.716 34.8114 19.1191 39.4219C19.4015 37.632 20.3726 36.3671 22.0323 35.627C22.9621 35.2567 23.9141 34.9546 24.8885 34.7207C25.0804 34.6814 25.1947 34.5681 25.2312 34.3809C24.4547 33.6484 23.7121 32.8743 23.0034 32.0586C21.9844 30.5939 21.5083 28.9701 21.5754 27.1875C21.5756 25.8054 21.747 24.446 22.0895 23.1094C22.3385 22.4454 22.6622 21.8224 23.0606 21.2402C24.1635 20.899 24.6394 21.2955 24.4886 22.4297C23.9769 23.2348 23.6722 24.1033 23.5747 25.0352C24.0888 24.6009 24.6029 24.1666 25.117 23.7324C25.4301 23.6217 25.7539 23.5651 26.0881 23.5625C27.0639 23.7242 28.035 23.9129 29.0014 24.1289C29.7705 23.9949 30.5321 23.825 31.2863 23.6191C31.9867 23.4757 32.6342 23.589 33.2285 23.959C33.6153 24.4046 34.0342 24.7256 34.4852 24.9219C33.4427 20.7707 30.8531 19.2791 26.7164 20.4473C25.7266 20.5605 25.3267 20.1262 25.5169 19.1445C26.5509 18.4065 27.7124 18.0667 29.0014 18.125C33.0903 18.4219 35.5086 20.5743 36.256 24.582C36.4655 26.1314 36.4655 27.6795 36.256 29.2266C35.9928 30.2394 35.5738 31.1834 34.9993 32.0586C34.2906 32.8743 33.548 33.6484 32.7715 34.3809C32.808 34.5681 32.9223 34.6814 33.1142 34.7207C34.5525 35.0069 35.8853 35.5355 37.1128 36.3066C38.1612 37.0823 38.7515 38.1206 38.8837 39.4219C42.6971 35.5531 44.0109 30.9652 42.8251 25.6582C43.0976 24.7014 43.6498 24.4938 44.4817 25.0352C44.8387 26.1017 45.0481 27.1968 45.1101 28.3203C45.8376 28.3577 46.5612 28.3199 47.2808 28.207C48.2334 25.1288 50.3279 23.7507 53.5643 24.0723C56.257 24.7594 57.666 26.4775 57.7914 29.2266C57.666 31.9757 56.257 33.6937 53.5643 34.3809C50.3242 34.701 48.2297 33.3228 47.2808 30.2461C46.5612 30.1333 45.8376 30.0954 45.1101 30.1328C44.872 33.6938 43.5963 36.828 41.2828 39.5352C41.1706 39.6778 41.1326 39.8288 41.1686 39.9883C41.859 40.7108 42.5825 41.3905 43.3393 42.0273C46.971 39.5285 50.646 39.4718 54.364 41.8574C57.7796 44.6941 58.7888 48.2246 57.3915 52.4492C56.0194 55.4533 53.7155 57.3037 50.4796 58C49.4895 58 48.4994 58 47.5092 58C43.3331 57.0497 40.8386 54.4819 40.0261 50.2969C39.7038 47.7453 40.3322 45.4609 41.9112 43.4434C41.2689 42.693 40.5834 41.9756 39.8547 41.291C39.6939 41.2553 39.5416 41.2931 39.3978 41.4043C36.6716 43.6971 33.5108 44.9621 29.9153 45.1992C29.8964 45.9176 29.9153 46.6351 29.9725 47.3516C33.1173 48.2625 34.5263 50.3392 34.1996 53.582C33.1996 56.9014 30.9718 58.2419 27.5162 57.6035C24.6625 56.5719 23.4248 54.5517 23.8032 51.543C24.3729 49.3165 25.782 47.9194 28.0303 47.3516C28.0874 46.6351 28.1064 45.9176 28.0874 45.1992C24.492 44.9621 21.3311 43.6971 18.605 41.4043C18.4611 41.2931 18.3088 41.2553 18.148 41.291C17.4417 41.9723 16.7562 42.6709 16.0915 43.3867C18.1495 46.1711 18.5875 49.1919 17.4054 52.4492C15.9956 55.6038 13.5774 57.454 10.1507 58C9.3891 58 8.62746 58 7.86582 58C4.59126 57.4225 2.21114 55.6477 0.725434 52.6758C-0.806762 48.5009 0.0881662 44.9326 3.41022 41.9707C7.19164 39.4639 10.9618 39.4828 14.7206 42.0273C15.4425 41.3683 16.1471 40.6886 16.8341 39.9883C16.8701 39.8288 16.8321 39.6778 16.7199 39.5352C14.4064 36.828 13.1307 33.6938 12.8927 30.1328C12.1651 30.0954 11.4415 30.1333 10.722 30.2461C9.75036 33.3795 7.61776 34.7576 4.32419 34.3809C1.10168 33.2979 -0.212149 31.0889 0.382695 27.7539C1.04283 25.7777 2.39474 24.5505 4.43843 24.0723C7.67537 23.7509 9.76989 25.1292 10.722 28.207C11.4415 28.3199 12.1651 28.3577 12.8927 28.3203C13.1264 24.6962 14.4402 21.5243 16.8341 18.8047C16.9103 18.6914 16.9103 18.5781 16.8341 18.4648C16.1089 17.7268 15.3663 17.0094 14.6063 16.3125C11.006 18.4938 7.46434 18.3995 3.98145 16.0293C0.476077 12.9256 -0.38077 9.20625 1.41091 4.87109C2.88555 2.21791 5.11335 0.594211 8.09431 0ZM9.46527 1.69922C12.8122 1.94071 15.1162 3.60217 16.3772 6.68359C17.0569 8.96404 16.7142 11.0786 15.3489 13.0273C14.9235 11.8252 14.1809 10.8623 13.1211 10.1387C14.09 8.52876 14.109 6.92394 13.1783 5.32422C11.5445 3.29108 9.5452 2.85683 7.18034 4.02148C5.55647 5.18542 4.92812 6.75248 5.29528 8.72266C5.41278 9.21985 5.62224 9.67297 5.92364 10.082C4.87535 10.8405 4.13275 11.8223 3.69583 13.0273C1.74891 10.108 1.82508 7.23824 3.92433 4.41797C5.39513 2.73528 7.24212 1.82903 9.46527 1.69922ZM48.4232 1.69922C51.7702 1.94071 54.0742 3.60217 55.3351 6.68359C56.0149 8.96404 55.6721 11.0786 54.3069 13.0273C53.87 11.8223 53.1274 10.8405 52.0791 10.082C52.585 9.3698 52.8135 8.57683 52.7646 7.70312C52.5844 5.05114 51.1563 3.61625 48.4803 3.39844C45.852 3.62563 44.3859 5.04165 44.0819 7.64648C44.1407 8.53896 44.4072 9.3697 44.8816 10.1387C43.8218 10.8623 43.0792 11.8252 42.6538 13.0273C40.7068 10.108 40.783 7.23824 42.8823 4.41797C44.3531 2.73528 46.2001 1.82903 48.4232 1.69922ZM28.2016 2.49219C30.2891 2.28928 31.6792 3.15776 32.3716 5.09766C32.6411 7.17032 31.7843 8.54857 29.8011 9.23242C27.7107 9.49967 26.3208 8.65007 25.6311 6.68359C25.3831 4.606 26.2399 3.20886 28.2016 2.49219ZM8.89404 5.21094C11.4671 5.25107 12.4001 6.49717 11.6931 8.94922C10.5124 10.4057 9.17952 10.5567 7.69445 9.40234C6.55601 7.56004 6.95587 6.1629 8.89404 5.21094ZM47.852 5.21094C50.425 5.25107 51.3581 6.49717 50.651 8.94922C49.4008 10.4586 48.0299 10.5719 46.5381 9.28906C45.5063 7.44913 45.9442 6.08975 47.852 5.21094ZM7.18034 11.4414C8.68495 12.1841 10.1892 12.1841 11.6931 11.4414C13.0082 12.1631 13.6746 13.2582 13.6924 14.7266C10.9124 16.5391 8.13239 16.5391 5.3524 14.7266C5.38981 13.3316 5.99912 12.2366 7.18034 11.4414ZM46.1383 11.4414C46.5276 11.5396 46.9085 11.6717 47.2808 11.8379C47.678 11.913 48.0778 11.9696 48.4803 12.0078C49.2996 11.9496 50.0802 11.7797 50.8224 11.498C52.0184 12.2665 52.6277 13.3427 52.6503 14.7266C49.8704 16.5391 47.0903 16.5391 44.3103 14.7266C44.3477 13.3316 44.9571 12.2366 46.1383 11.4414ZM25.9167 25.375C26.9338 25.6176 27.9621 25.8065 29.0014 25.9414C29.9534 25.8518 30.8864 25.663 31.8004 25.375C32.3041 25.6841 32.7802 26.0428 33.2285 26.4512C33.6534 26.719 34.1103 26.8889 34.5994 26.9609C34.5495 30.1642 33.0263 32.3732 30.0296 33.5879C28.845 33.8893 27.7405 33.7005 26.7164 33.0215C24.4596 31.6236 23.3552 29.6034 23.4033 26.9609C24.449 26.7545 25.2868 26.226 25.9167 25.375ZM4.66693 25.8281C7.15765 25.6549 8.60476 26.7877 9.00828 29.2266C8.60738 31.6825 7.16026 32.7964 4.66693 32.5684C2.72865 31.9167 1.8718 30.5761 2.09639 28.5469C2.46711 27.1789 3.32395 26.2726 4.66693 25.8281ZM51.7364 25.8281C54.59 25.7313 55.98 27.0906 55.9063 29.9062C55.0245 32.4013 53.3299 33.1754 50.8224 32.2285C49.0562 31.0164 48.6183 29.4494 49.5085 27.5273C50.0441 26.6731 50.7867 26.1067 51.7364 25.8281ZM26.8307 35.2305C28.1826 35.6749 29.5345 35.6749 30.8864 35.2305C31.1827 35.4908 31.4683 35.774 31.7433 36.0801C30.8436 36.6204 29.9296 37.1302 29.0014 37.6094C28.0731 37.1302 27.1591 36.6204 26.2595 36.0801C26.5679 35.8697 26.7583 35.5865 26.8307 35.2305ZM23.746 36.9297C23.9029 36.9119 24.0553 36.9308 24.203 36.9863C25.4978 37.7416 26.7926 38.4967 28.0874 39.252C28.8835 39.5204 29.6451 39.4449 30.3723 39.0254C31.5148 38.3457 32.6572 37.666 33.7997 36.9863C36.1355 37.2634 37.2208 38.5661 37.0557 40.8945C32.7931 43.6529 28.2804 44.125 23.5175 42.3105C22.6147 41.9103 21.7578 41.4384 20.947 40.8945C20.6945 39.5755 21.0944 38.4993 22.1466 37.666C22.6764 37.3841 23.2095 37.1386 23.746 36.9297ZM8.09431 41.9141C11.9491 41.7564 14.5577 43.4556 15.9202 47.0117C16.5341 49.2156 16.1914 51.2547 14.892 53.1289C14.5873 52.6002 14.2827 52.0717 13.978 51.543C13.5962 51.0323 13.1583 50.5792 12.6642 50.1836C13.9104 47.7823 13.4534 45.762 11.2932 44.123C8.90415 43.0106 6.90484 43.4827 5.29528 45.5391C4.40829 47.1498 4.46541 48.7169 5.46665 50.2402C4.41781 50.9796 3.65618 51.9425 3.18173 53.1289C1.30826 50.2692 1.36538 47.4372 3.3531 44.6328C4.62089 43.1633 6.20129 42.2571 8.09431 41.9141ZM48.309 41.9141C52.0958 41.8736 54.6283 43.6107 55.9063 47.125C56.4671 49.2534 56.1433 51.2359 54.9352 53.0723C54.8402 53.1502 54.7641 53.1313 54.7067 53.0156C54.2284 51.9328 53.5429 51.0077 52.6503 50.2402C53.8385 47.8987 53.4195 45.8974 51.3936 44.2363C48.9866 43.0382 46.9492 43.4724 45.2814 45.5391C44.4254 47.1355 44.4444 48.7215 45.3386 50.2969C44.3459 51.0958 43.6033 52.0777 43.1108 53.2422C41.2946 50.3169 41.3707 47.4472 43.3393 44.6328C44.6677 43.1155 46.3243 42.2093 48.309 41.9141ZM8.66554 45.3125C10.6219 45.4206 11.5548 46.4401 11.4646 48.3711C10.7257 50.1813 9.44992 50.6911 7.63733 49.9004C6.16678 48.5813 6.12871 47.222 7.52308 45.8223C7.90184 45.615 8.28266 45.445 8.66554 45.3125ZM48.309 45.4258C50.6598 45.3209 51.6691 46.4159 51.3365 48.7109C50.4497 50.3382 49.1739 50.7347 47.5092 49.9004C46.1883 48.6117 46.1503 47.2902 47.395 45.9355C47.6919 45.7322 47.9966 45.5623 48.309 45.4258ZM28.2016 49.1641C30.2898 48.9523 31.6797 49.8209 32.3716 51.7695C32.6411 53.8422 31.7843 55.2204 29.8011 55.9043C27.7107 56.1715 26.3208 55.3219 25.6311 53.3555C25.3831 51.2779 26.2399 49.8808 28.2016 49.1641ZM6.72336 51.543C8.23132 52.2911 9.73556 52.2911 11.2361 51.543C12.3755 52.3142 13.0799 53.3716 13.3496 54.7148C11.079 56.3361 8.64176 56.6193 6.03788 55.5645C5.62845 55.3332 5.22858 55.0878 4.8383 54.8281C4.84308 53.9868 5.10965 53.2315 5.63802 52.5625C5.98788 52.1964 6.34966 51.8565 6.72336 51.543ZM46.7095 51.543C47.4151 51.9445 48.1768 52.1711 48.9944 52.2227C49.81 52.0842 50.6098 51.9143 51.3936 51.7129C52.5589 52.495 53.1302 53.5712 53.1073 54.9414C50.7265 56.4048 48.2512 56.5747 45.6813 55.4512C45.3189 55.2527 44.9762 55.0261 44.6531 54.7715C44.9205 53.4282 45.606 52.352 46.7095 51.543Z" fill="url(#paint0_linear_159_12851)"/>
<defs>
<linearGradient id="paint0_linear_159_12851" x1="29" y1="0" x2="29" y2="58" gradientUnits="userSpaceOnUse">
<stop stop-color="#2E69FF"/>
<stop offset="1" stop-color="#0AD9BE"/>
</linearGradient>
</defs>
</svg>
