<svg width="121" height="121" viewBox="0 0 121 121" fill="none" xmlns="http://www.w3.org/2000/svg">
<path d="M40.3333 100.833H25.2083C22.5341 100.833 19.9693 99.771 18.0783 97.88C16.1873 95.989 15.125 93.4243 15.125 90.75V30.25C15.125 27.5757 16.1873 25.011 18.0783 23.12C19.9693 21.229 22.5341 20.1667 25.2083 20.1667H40.3333C43.0076 20.1667 45.5723 21.229 47.4633 23.12C49.3543 25.011 50.4167 27.5757 50.4167 30.25V90.75C50.4167 93.4243 49.3543 95.989 47.4633 97.88C45.5723 99.771 43.0076 100.833 40.3333 100.833ZM80.6667 50.4167H100.833C103.508 50.4167 106.072 49.3543 107.963 47.4633C109.854 45.5723 110.917 43.0076 110.917 40.3333V25.2083C110.917 22.5341 109.854 19.9693 107.963 18.0783C106.072 16.1873 103.508 15.125 100.833 15.125H80.6667C77.9924 15.125 75.4277 16.1873 73.5367 18.0783C71.6457 19.9693 70.5833 22.5341 70.5833 25.2083V40.3333C70.5833 43.0076 71.6457 45.5723 73.5367 47.4633C75.4277 49.3543 77.9924 50.4167 80.6667 50.4167ZM105.875 100.833V70.5833C105.875 67.9091 104.813 65.3443 102.922 63.4533C101.031 61.5623 98.4659 60.5 95.7917 60.5H70.5833C67.9091 60.5 65.3443 61.5623 63.4533 63.4533C61.5623 65.3443 60.5 67.9091 60.5 70.5833V100.833C60.5 103.508 61.5623 106.072 63.4533 107.963C65.3443 109.854 67.9091 110.917 70.5833 110.917H95.7917C98.4659 110.917 101.031 109.854 102.922 107.963C104.813 106.072 105.875 103.508 105.875 100.833Z" fill="#1E1E1E"/>
</svg>
