<svg width="642" height="678" viewBox="0 0 642 678" fill="none" xmlns="http://www.w3.org/2000/svg">
<path d="M424.052 220.023C424.052 271.707 383.126 313.546 332.714 313.546C282.303 313.546 241.377 271.707 241.377 220.023C241.377 168.339 282.303 126.5 332.714 126.5C383.126 126.5 424.052 168.339 424.052 220.023Z" fill="#2E69FF" stroke="black" stroke-width="3"/>
<path d="M401.16 220.023C401.16 258.767 370.483 290.115 332.714 290.115C294.945 290.115 264.268 258.767 264.268 220.023C264.268 181.279 294.945 149.93 332.714 149.93C370.483 149.93 401.16 181.279 401.16 220.023Z" fill="#2EC1C4" stroke="black" stroke-width="3"/>
<g clip-path="url(#clip0_317_100)">
<path d="M362.456 345.83C366.281 342.503 368.604 337.246 367.995 332.128C367.385 327.011 363.612 322.306 358.718 321.219C353.823 320.132 348.244 323.141 346.757 328.064C345.939 318.572 344.996 308.682 340.095 300.599C335.658 293.279 327.971 288.042 319.641 287.105C311.311 286.168 302.541 289.707 297.346 296.477C292.151 303.247 290.879 313.09 294.517 320.863C297.198 326.589 302.136 330.85 307.31 334.317C324.029 345.425 344.081 349.942 363.777 347.037" fill="#2EFF9B"/>
<path d="M305.583 289.903C312.457 295.668 318.762 302.115 324.409 309.152C333.245 320.127 340.396 332.433 345.612 345.639C345.994 346.602 344.474 347.022 344.097 346.069C340.78 337.719 336.677 329.724 331.845 322.199C324.311 310.443 315.081 299.938 304.472 291.047C303.688 290.389 304.805 289.251 305.583 289.903Z" fill="#1E1E1E"/>
<path d="M365.098 345.83C361.273 342.503 358.95 337.246 359.56 332.128C360.169 327.011 363.942 322.306 368.837 321.219C373.731 320.132 379.311 323.141 380.797 328.064C381.616 318.572 382.558 308.682 387.459 300.599C391.897 293.279 399.583 288.042 407.913 287.105C416.243 286.168 425.013 289.707 430.208 296.477C435.404 303.247 436.675 313.09 433.037 320.863C430.357 326.589 425.418 330.85 420.244 334.317C403.525 345.425 383.473 349.942 363.777 347.037" fill="#2EFF9B"/>
<path d="M421.971 289.903C415.098 295.668 408.792 302.115 403.146 309.152C394.309 320.127 387.158 332.433 381.942 345.639C381.561 346.602 383.08 347.022 383.457 346.069C391.991 324.606 405.615 305.688 423.082 291.047C423.866 290.389 422.749 289.251 421.971 289.903Z" fill="#1E1E1E"/>
<path d="M376.447 232.487C383.522 232.487 389.258 226.581 389.258 219.295C389.258 212.01 383.522 206.104 376.447 206.104C369.372 206.104 363.636 212.01 363.636 219.295C363.636 226.581 369.372 232.487 376.447 232.487Z" fill="#020203"/>
<path d="M336.948 173.821H425.211V178.794H348.215C343.688 178.794 339.205 179.712 335.023 181.496C330.841 183.28 327.04 185.894 323.839 189.191C320.638 192.487 318.099 196.4 316.366 200.707C314.634 205.014 313.742 209.63 313.742 214.292V270.786H304.084C303.657 270.786 303.248 270.611 302.946 270.3C302.644 269.99 302.475 269.568 302.475 269.128V209.319C302.475 204.657 303.366 200.041 305.099 195.734C306.831 191.428 309.37 187.514 312.572 184.218C315.773 180.922 319.573 178.307 323.755 176.523C327.938 174.739 332.421 173.821 336.948 173.821Z" fill="#020203"/>
<path d="M353.925 346.107V270.573H375.414V346.107C375.413 346.615 375.217 347.101 374.869 347.46C374.52 347.819 374.047 348.021 373.554 348.022H355.784C355.291 348.021 354.819 347.819 354.47 347.46C354.121 347.101 353.925 346.615 353.925 346.107Z" fill="#29303D"/>
<path d="M297.929 269.084V207.663C297.94 197.886 301.716 188.512 308.431 181.598C315.145 174.684 324.248 170.795 333.744 170.784H424.798V271.211H299.995C299.447 271.211 298.922 270.986 298.535 270.588C298.147 270.189 297.929 269.648 297.929 269.084ZM423.971 171.635H333.744C324.467 171.645 315.574 175.445 309.015 182.199C302.455 188.954 298.766 198.111 298.755 207.663V269.084C298.756 269.422 298.886 269.747 299.119 269.986C299.351 270.225 299.666 270.36 299.995 270.36H423.971V171.635Z" fill="#29303D"/>
<path d="M376.447 226.104C374.475 226.102 372.584 225.294 371.19 223.858C369.795 222.422 369.011 220.475 369.008 218.444V163.549C369.008 163.211 368.877 162.886 368.645 162.647C368.413 162.408 368.097 162.273 367.769 162.273H338.841C338.293 162.272 337.768 162.048 337.381 161.649C336.993 161.25 336.775 160.709 336.775 160.145V140.145C336.775 139.58 336.993 139.04 337.381 138.641C337.768 138.242 338.293 138.017 338.841 138.017H381.819C382.367 138.017 382.892 138.242 383.28 138.641C383.667 139.04 383.885 139.58 383.886 140.145V218.444C383.883 220.475 383.099 222.422 381.704 223.858C380.31 225.294 378.419 226.102 376.447 226.104Z" fill="#2EABD3"/>
<path d="M428.104 169.932C434.338 169.919 440.322 172.456 444.74 176.986C449.157 181.516 451.646 187.667 451.659 194.087V264.008H497.944C499.803 264.004 501.588 264.76 502.905 266.111C504.223 267.462 504.965 269.297 504.969 271.211H404.548V194.087C404.561 187.667 407.05 181.516 411.468 176.986C415.885 172.456 421.87 169.919 428.104 169.932Z" fill="#29303D"/>
<path d="M422.451 209.749L427.329 230.497L522.741 206.713L517.864 185.965C517.805 185.712 517.685 185.477 517.514 185.284C517.344 185.091 517.129 184.946 516.889 184.861C516.713 184.797 516.525 184.768 516.338 184.775L461.186 155.37C460.862 155.2 460.491 155.154 460.138 155.242C459.785 155.329 459.474 155.543 459.261 155.846L432.681 194.014L422.66 208.407C422.642 208.433 422.63 208.462 422.623 208.492C422.617 208.523 422.617 208.555 422.624 208.585C422.42 208.935 422.358 209.353 422.451 209.749Z" fill="#1E1E1E"/>
<path d="M422.624 208.585C422.628 208.612 422.638 208.638 422.653 208.661C422.667 208.684 422.686 208.704 422.708 208.72C422.733 208.738 422.763 208.751 422.793 208.757C422.824 208.763 422.856 208.763 422.887 208.756C422.937 208.743 422.98 208.711 423.01 208.668L423.045 208.619L423.566 207.868L433.042 194.265L459.614 156.106C459.766 155.89 459.988 155.736 460.24 155.674C460.492 155.612 460.757 155.645 460.987 155.767L515.712 184.945L516.203 185.207C516.223 185.216 516.244 185.223 516.264 185.229C516.301 185.222 516.339 185.219 516.377 185.218C516.428 185.201 516.471 185.163 516.496 185.114C516.51 185.088 516.518 185.06 516.521 185.031C516.523 185.002 516.52 184.972 516.512 184.944C516.503 184.916 516.49 184.89 516.472 184.867C516.453 184.845 516.431 184.826 516.406 184.813L516.338 184.775L461.186 155.37C460.862 155.2 460.491 155.154 460.138 155.242C459.785 155.329 459.474 155.543 459.261 155.846L432.681 194.014L422.66 208.407C422.642 208.433 422.63 208.462 422.623 208.492C422.617 208.523 422.617 208.555 422.624 208.585Z" fill="#29303D"/>
<path d="M451.279 210.701L453.403 210.944L469.165 212.742L479.615 213.933L480.232 214.004L493.271 203.516L493.771 203.115L496.85 200.638L507.807 191.826L507.873 191.207L511.77 154.988C511.823 154.489 511.682 153.989 511.378 153.597C511.073 153.205 510.631 152.954 510.146 152.898L458.136 146.965C457.652 146.911 457.166 147.056 456.786 147.369C456.405 147.683 456.161 148.139 456.106 148.637L453.358 174.186L451.833 188.35L450.47 201.022L449.838 206.907L449.653 208.612C449.6 209.11 449.742 209.611 450.047 210.002C450.352 210.394 450.795 210.645 451.279 210.701Z" fill="#E6E6E6"/>
<path d="M465.571 178.953L488.101 181.522L496.09 182.433C496.443 182.474 496.8 182.442 497.141 182.34C497.482 182.238 497.8 182.068 498.077 181.84C498.354 181.612 498.585 181.329 498.756 181.009C498.927 180.689 499.035 180.337 499.074 179.974C499.113 179.611 499.082 179.243 498.983 178.892C498.884 178.541 498.719 178.213 498.498 177.928C498.276 177.643 498.002 177.405 497.691 177.229C497.38 177.053 497.038 176.942 496.685 176.901L486.748 175.768L466.168 173.418C465.456 173.337 464.741 173.551 464.181 174.012C463.622 174.474 463.263 175.145 463.184 175.879C463.105 176.612 463.312 177.348 463.759 177.925C464.207 178.501 464.859 178.871 465.571 178.953Z" fill="#1E1E1E"/>
<path d="M464.289 189.215C464.347 189.226 464.405 189.237 464.464 189.243L490.617 192.226L494.984 192.725C495.696 192.806 496.411 192.593 496.971 192.131C497.53 191.67 497.889 190.998 497.968 190.264C498.047 189.53 497.839 188.794 497.391 188.218C496.943 187.642 496.291 187.272 495.578 187.191L489.264 186.472L468.548 184.108L465.061 183.71C464.364 183.63 463.664 183.832 463.109 184.274C462.554 184.716 462.188 185.363 462.087 186.078C461.987 186.793 462.16 187.52 462.571 188.105C462.982 188.691 463.598 189.089 464.289 189.215Z" fill="#1E1E1E"/>
<path d="M461.329 198.315C461.543 198.682 461.837 198.992 462.186 199.223C462.536 199.453 462.933 199.598 463.346 199.645L474.065 200.868L493.156 203.046L493.16 203.044L493.771 203.115L496.85 200.638C496.869 200.45 496.87 200.26 496.851 200.072C496.786 199.44 496.513 198.85 496.079 198.399C495.644 197.949 495.073 197.664 494.459 197.594L491.807 197.29L481.287 196.091L473.718 195.227L463.94 194.111C463.439 194.054 462.932 194.142 462.477 194.366C462.023 194.59 461.638 194.94 461.366 195.378C461.094 195.815 460.947 196.322 460.94 196.841C460.934 197.36 461.068 197.871 461.329 198.315Z" fill="#1E1E1E"/>
<path d="M476.385 166.409L481.99 167.048L484.466 167.331L488.206 167.757C488.919 167.839 489.634 167.625 490.193 167.163C490.753 166.702 491.112 166.03 491.191 165.296C491.27 164.563 491.062 163.827 490.614 163.25C490.166 162.674 489.513 162.304 488.801 162.223L476.982 160.876C476.269 160.795 475.555 161.008 474.995 161.469C474.435 161.93 474.076 162.601 473.997 163.335C473.918 164.069 474.125 164.805 474.573 165.381C475.021 165.958 475.672 166.327 476.385 166.409Z" fill="#1E1E1E"/>
<path d="M430.549 181.819L437.383 210.889L448.789 213.122L459.34 215.191L470.661 217.409L474.278 218.118C474.49 218.159 474.708 218.153 474.917 218.101C475.127 218.049 475.323 217.951 475.493 217.815L478.395 215.481L480.232 214.004L493.271 203.516L484.98 168.25C484.899 167.899 484.72 167.58 484.466 167.331C484.244 167.111 483.971 166.952 483.673 166.869C483.375 166.786 483.062 166.781 482.762 166.856L431.903 179.534C431.429 179.652 431.02 179.959 430.767 180.388C430.513 180.816 430.434 181.331 430.549 181.819Z" fill="#2EABD3"/>
<path d="M446.219 204.945C446.389 205.662 446.827 206.281 447.439 206.665C448.051 207.05 448.786 207.168 449.482 206.995L479.325 199.556C480.021 199.382 480.622 198.93 480.995 198.3C481.368 197.67 481.484 196.914 481.316 196.196C481.309 196.161 481.299 196.126 481.287 196.091C481.097 195.4 480.653 194.811 480.051 194.448C479.448 194.086 478.732 193.977 478.053 194.146L448.211 201.585C447.514 201.759 446.913 202.211 446.54 202.841C446.167 203.471 446.051 204.228 446.219 204.945Z" fill="#1E1E1E"/>
<path d="M448.789 213.122L459.34 215.191L481.691 209.619C482.388 209.446 482.989 208.994 483.362 208.364C483.736 207.734 483.851 206.977 483.682 206.259C483.513 205.542 483.075 204.923 482.463 204.538C481.851 204.154 481.116 204.035 480.419 204.209L450.576 211.648C449.953 211.803 449.403 212.182 449.028 212.717C448.937 212.845 448.857 212.981 448.789 213.122Z" fill="#1E1E1E"/>
<path d="M470.661 217.409L474.278 218.118C474.49 218.159 474.708 218.153 474.917 218.101C475.127 218.049 475.323 217.951 475.493 217.815L478.395 215.481L470.661 217.409Z" fill="#1E1E1E"/>
<path d="M452.233 189.357C452.402 190.074 452.84 190.693 453.452 191.077C454.064 191.462 454.799 191.58 455.496 191.407L467.054 188.526C467.751 188.351 468.351 187.9 468.724 187.27C469.098 186.64 469.213 185.883 469.045 185.166C468.955 184.78 468.786 184.42 468.548 184.108C468.228 183.687 467.797 183.369 467.307 183.193C466.816 183.017 466.287 182.99 465.783 183.116L454.224 185.997C453.527 186.171 452.926 186.622 452.553 187.252C452.179 187.883 452.064 188.64 452.233 189.357Z" fill="#1E1E1E"/>
<path d="M459.34 215.191L470.662 217.409L474.278 218.118C474.49 218.159 474.707 218.153 474.917 218.101C475.126 218.049 475.322 217.952 475.492 217.816L478.396 215.481L477.377 215.735L475.226 217.463C475.104 217.561 474.964 217.63 474.815 217.667C474.665 217.705 474.51 217.709 474.358 217.68L471.681 217.155L460.359 214.937L459.34 215.191ZM493.159 203.046L493.269 203.515L493.772 203.113L493.159 203.046ZM459.34 215.191L470.662 217.409L474.278 218.118C474.49 218.159 474.707 218.153 474.917 218.101C475.126 218.049 475.322 217.952 475.492 217.816L478.396 215.481L477.377 215.735L475.226 217.463C475.104 217.561 474.964 217.63 474.815 217.667C474.665 217.705 474.51 217.709 474.358 217.68L471.681 217.155L460.359 214.937L459.34 215.191ZM459.34 215.191L470.662 217.409L474.278 218.118C474.49 218.159 474.707 218.153 474.917 218.101C475.126 218.049 475.322 217.952 475.492 217.816L478.396 215.481L477.377 215.735L475.226 217.463C475.104 217.561 474.964 217.63 474.815 217.667C474.665 217.705 474.51 217.709 474.358 217.68L471.681 217.155L460.359 214.937L459.34 215.191ZM422.451 209.749L435.227 264.095C435.322 264.497 435.568 264.843 435.91 265.059C436.253 265.274 436.665 265.341 437.055 265.244L529.525 242.193C529.915 242.095 530.251 241.842 530.46 241.49C530.669 241.137 530.734 240.713 530.64 240.311L517.864 185.965C517.805 185.711 517.685 185.477 517.514 185.284C517.344 185.091 517.129 184.946 516.889 184.861C516.713 184.797 516.525 184.768 516.338 184.775C516.12 184.782 515.906 184.84 515.712 184.945C515.623 184.989 515.539 185.042 515.461 185.105L507.872 191.208L496.851 200.073L493.159 203.043L493.159 203.046L493.156 203.047L479.616 213.931L477.377 215.735L475.226 217.463C475.104 217.561 474.964 217.63 474.815 217.667C474.665 217.705 474.51 217.709 474.358 217.68L471.681 217.155L460.359 214.937L449.026 212.717L424.206 207.853C423.994 207.81 423.776 207.815 423.566 207.868C423.284 207.939 423.028 208.092 422.827 208.308C422.751 208.394 422.682 208.486 422.624 208.585C422.42 208.935 422.358 209.353 422.451 209.749ZM459.34 215.191L470.662 217.409L474.278 218.118C474.49 218.159 474.707 218.153 474.917 218.101C475.126 218.049 475.322 217.952 475.492 217.816L478.396 215.481L477.377 215.735L475.226 217.463C475.104 217.561 474.964 217.63 474.815 217.667C474.665 217.705 474.51 217.709 474.358 217.68L471.681 217.155L460.359 214.937L459.34 215.191ZM459.34 215.191L470.662 217.409L474.278 218.118C474.49 218.159 474.707 218.153 474.917 218.101C475.126 218.049 475.322 217.952 475.492 217.816L478.396 215.481L477.377 215.735L475.226 217.463C475.104 217.561 474.964 217.63 474.815 217.667C474.665 217.705 474.51 217.709 474.358 217.68L471.681 217.155L460.359 214.937L459.34 215.191ZM459.34 215.191L470.662 217.409L474.278 218.118C474.49 218.159 474.707 218.153 474.917 218.101C475.126 218.049 475.322 217.952 475.492 217.816L478.396 215.481L477.377 215.735L475.226 217.463C475.104 217.561 474.964 217.63 474.815 217.667C474.665 217.705 474.51 217.709 474.358 217.68L471.681 217.155L460.359 214.937L459.34 215.191Z" fill="#1E1E1E"/>
<path d="M459.34 215.191L470.662 217.409L474.278 218.118C474.49 218.159 474.707 218.153 474.917 218.101C475.126 218.049 475.322 217.952 475.492 217.816L478.396 215.481L477.377 215.735L475.226 217.463C475.104 217.561 474.964 217.63 474.815 217.667C474.665 217.705 474.51 217.709 474.358 217.68L471.681 217.155L460.359 214.937L459.34 215.191ZM493.159 203.046L493.269 203.515L493.772 203.113L493.159 203.046ZM459.34 215.191L470.662 217.409L474.278 218.118C474.49 218.159 474.707 218.153 474.917 218.101C475.126 218.049 475.322 217.952 475.492 217.816L478.396 215.481L477.377 215.735L475.226 217.463C475.104 217.561 474.964 217.63 474.815 217.667C474.665 217.705 474.51 217.709 474.358 217.68L471.681 217.155L460.359 214.937L459.34 215.191ZM459.34 215.191L470.662 217.409L474.278 218.118C474.49 218.159 474.707 218.153 474.917 218.101C475.126 218.049 475.322 217.952 475.492 217.816L478.396 215.481L477.377 215.735L475.226 217.463C475.104 217.561 474.964 217.63 474.815 217.667C474.665 217.705 474.51 217.709 474.358 217.68L471.681 217.155L460.359 214.937L459.34 215.191ZM423.045 208.619L423.101 208.662C423.11 208.646 423.127 208.632 423.139 208.616C423.264 208.481 423.42 208.381 423.592 208.324C423.764 208.267 423.947 208.255 424.125 208.289L448.79 213.121L459.34 215.191L470.662 217.409L474.278 218.118C474.49 218.159 474.707 218.153 474.917 218.101C475.126 218.049 475.322 217.952 475.492 217.816L478.396 215.481L477.377 215.735L475.226 217.463C475.104 217.561 474.964 217.63 474.815 217.667C474.665 217.705 474.51 217.709 474.358 217.68L471.681 217.155L460.359 214.937L449.026 212.717L424.206 207.853C423.994 207.81 423.776 207.815 423.566 207.868L423.045 208.619ZM422.451 209.749L435.227 264.095C435.322 264.497 435.568 264.843 435.91 265.059C436.253 265.274 436.665 265.341 437.055 265.244L529.525 242.193C529.915 242.095 530.251 241.842 530.46 241.49C530.669 241.137 530.734 240.713 530.64 240.311L517.864 185.965C517.805 185.711 517.685 185.477 517.514 185.284C517.344 185.091 517.129 184.946 516.889 184.861C516.713 184.797 516.525 184.768 516.338 184.775C516.12 184.782 515.906 184.84 515.712 184.945C515.623 184.989 515.539 185.042 515.461 185.105L507.872 191.208L496.851 200.073L493.159 203.043L493.159 203.046L493.156 203.047L479.616 213.931L477.377 215.735L475.226 217.463C475.104 217.561 474.964 217.63 474.815 217.667C474.665 217.705 474.51 217.709 474.358 217.68L471.681 217.155L460.359 214.937L449.026 212.717L424.206 207.853C423.994 207.81 423.776 207.815 423.566 207.868C423.284 207.939 423.028 208.092 422.827 208.308C422.751 208.394 422.682 208.486 422.624 208.585C422.42 208.935 422.358 209.353 422.451 209.749ZM422.873 209.644C422.835 209.484 422.832 209.317 422.865 209.156C422.898 208.995 422.966 208.843 423.063 208.712C423.072 208.693 423.085 208.676 423.101 208.662C423.11 208.646 423.127 208.632 423.139 208.616C423.264 208.481 423.42 208.381 423.592 208.324C423.764 208.267 423.947 208.255 424.125 208.289L448.79 213.121L459.34 215.191L470.662 217.409L474.278 218.118C474.49 218.159 474.707 218.153 474.917 218.101C475.126 218.049 475.322 217.952 475.492 217.816L478.396 215.481L480.233 214.004L493.269 203.515L493.772 203.113L496.849 200.637L507.808 191.825L515.73 185.454C515.851 185.357 515.99 185.288 516.138 185.251C516.18 185.24 516.222 185.233 516.264 185.229C516.301 185.222 516.339 185.219 516.377 185.218C516.503 185.217 516.629 185.238 516.749 185.281C516.92 185.342 517.073 185.446 517.194 185.584C517.316 185.722 517.402 185.889 517.446 186.069L530.222 240.415C530.255 240.558 530.261 240.706 530.239 240.851C530.217 240.995 530.168 241.134 530.094 241.259C530.02 241.384 529.922 241.493 529.807 241.58C529.692 241.666 529.562 241.728 529.424 241.762L436.954 264.813C436.675 264.882 436.38 264.834 436.136 264.68C435.891 264.526 435.716 264.278 435.649 263.99L422.873 209.644ZM459.34 215.191L470.662 217.409L474.278 218.118C474.49 218.159 474.707 218.153 474.917 218.101C475.126 218.049 475.322 217.952 475.492 217.816L478.396 215.481L477.377 215.735L475.226 217.463C475.104 217.561 474.964 217.63 474.815 217.667C474.665 217.705 474.51 217.709 474.358 217.68L471.681 217.155L460.359 214.937L459.34 215.191ZM459.34 215.191L470.662 217.409L474.278 218.118C474.49 218.159 474.707 218.153 474.917 218.101C475.126 218.049 475.322 217.952 475.492 217.816L478.396 215.481L477.377 215.735L475.226 217.463C475.104 217.561 474.964 217.63 474.815 217.667C474.665 217.705 474.51 217.709 474.358 217.68L471.681 217.155L460.359 214.937L459.34 215.191ZM459.34 215.191L470.662 217.409L474.278 218.118C474.49 218.159 474.707 218.153 474.917 218.101C475.126 218.049 475.322 217.952 475.492 217.816L478.396 215.481L477.377 215.735L475.226 217.463C475.104 217.561 474.964 217.63 474.815 217.667C474.665 217.705 474.51 217.709 474.358 217.68L471.681 217.155L460.359 214.937L459.34 215.191Z" fill="#29303D"/>
<path d="M505.424 231.516C505.216 230.625 505.359 229.686 505.823 228.904C506.286 228.122 507.032 227.561 507.896 227.345L519.567 224.436C520.43 224.224 521.34 224.373 522.097 224.85C522.855 225.328 523.397 226.095 523.606 226.984C523.815 227.872 523.673 228.81 523.212 229.591C522.751 230.372 522.008 230.933 521.146 231.152L509.475 234.061C508.61 234.275 507.698 234.128 506.938 233.651C506.179 233.174 505.635 232.406 505.424 231.516Z" fill="#2EABD3"/>
<path d="M376.447 221.423C378.045 221.423 379.34 220.089 379.34 218.444C379.34 216.799 378.045 215.465 376.447 215.465C374.849 215.465 373.554 216.799 373.554 218.444C373.554 220.089 374.849 221.423 376.447 221.423Z" fill="#1E1E1E"/>
</g>
<g filter="url(#filter0_f_317_100)">
<ellipse cx="509.63" cy="196" rx="21.494" ry="22" fill="#2EFF9B"/>
</g>
<rect x="64.2635" y="245.75" width="201.5" height="200.252" rx="100.126" transform="rotate(-3.19036 64.2635 245.75)" stroke="#2E69FF" stroke-width="0.5"/>
<rect x="76.1402" y="257.113" width="176.985" height="175.889" rx="87.9444" transform="rotate(-3.19036 76.1402 257.113)" stroke="#0AD9BE" stroke-width="0.5"/>
<rect x="82.1402" y="270.031" width="157.539" height="156.563" rx="78.2813" transform="rotate(-3.19036 82.1402 270.031)" stroke="#0AD9BE" stroke-width="0.5"/>
<g filter="url(#filter1_f_317_100)">
<path d="M266.877 339C266.877 385.944 228.821 424 181.877 424C134.932 424 96.8766 385.944 96.8766 339C96.8766 292.056 134.932 254 181.877 254C228.821 254 266.877 292.056 266.877 339Z" fill="url(#paint0_linear_317_100)" fill-opacity="0.5"/>
</g>
<defs>
<filter id="filter0_f_317_100" x="377.336" y="63.2" width="264.588" height="265.6" filterUnits="userSpaceOnUse" color-interpolation-filters="sRGB">
<feFlood flood-opacity="0" result="BackgroundImageFix"/>
<feBlend mode="normal" in="SourceGraphic" in2="BackgroundImageFix" result="shape"/>
<feGaussianBlur stdDeviation="55.4" result="effect1_foregroundBlur_317_100"/>
</filter>
<filter id="filter1_f_317_100" x="-156.523" y="0.600006" width="676.8" height="676.8" filterUnits="userSpaceOnUse" color-interpolation-filters="sRGB">
<feFlood flood-opacity="0" result="BackgroundImageFix"/>
<feBlend mode="normal" in="SourceGraphic" in2="BackgroundImageFix" result="shape"/>
<feGaussianBlur stdDeviation="126.7" result="effect1_foregroundBlur_317_100"/>
</filter>
<linearGradient id="paint0_linear_317_100" x1="171.877" y1="241" x2="171.877" y2="411" gradientUnits="userSpaceOnUse">
<stop stop-color="#2E69FF"/>
<stop offset="1" stop-color="#0AD9BE"/>
</linearGradient>
<clipPath id="clip0_317_100">
<rect width="238.24" height="210.005" fill="white" transform="translate(292.442 138.017)"/>
</clipPath>
</defs>
</svg>
