<svg width="291" height="224" viewBox="0 0 291 224" fill="none" xmlns="http://www.w3.org/2000/svg">
<path d="M184.175 95.0229C184.175 146.707 143.249 188.546 92.8375 188.546C42.4259 188.546 1.5 146.707 1.5 95.0229C1.5 43.3385 42.4259 1.5 92.8375 1.5C143.249 1.5 184.175 43.3385 184.175 95.0229Z" fill="#2E69FF" stroke="black" stroke-width="3"/>
<path d="M161.283 95.0229C161.283 133.767 130.606 165.115 92.8375 165.115C55.0685 165.115 24.3914 133.767 24.3914 95.0229C24.3914 56.2787 55.0685 24.9303 92.8375 24.9303C130.606 24.9303 161.283 56.2787 161.283 95.0229Z" fill="#2EC1C4" stroke="black" stroke-width="3"/>
<g clip-path="url(#clip0_40_3095)">
<path d="M122.58 220.83C126.404 217.503 128.727 212.246 128.118 207.128C127.509 202.011 123.736 197.306 118.841 196.219C113.946 195.132 108.367 198.141 106.88 203.064C106.062 193.572 105.119 183.682 100.219 175.599C95.7809 168.279 88.0948 163.042 79.7648 162.105C71.4348 161.168 62.6644 164.707 57.4693 171.477C52.2742 178.247 51.0022 188.09 54.6407 195.863C57.3211 201.589 62.2593 205.85 67.4333 209.317C84.1523 220.425 104.205 224.942 123.901 222.037" fill="#2EFF9B"/>
<path d="M65.7067 164.903C72.5799 170.668 78.8854 177.115 84.532 184.152C93.3687 195.127 100.52 207.433 105.735 220.639C106.117 221.602 104.598 222.022 104.22 221.069C100.903 212.719 96.7999 204.724 91.9685 197.199C84.4344 185.443 75.2041 174.938 64.5957 166.047C63.8113 165.389 64.9288 164.251 65.7067 164.903Z" fill="#1E1E1E"/>
<path d="M125.221 220.83C121.397 217.503 119.074 212.246 119.683 207.128C120.292 202.011 124.066 197.306 128.96 196.219C133.855 195.132 139.434 198.141 140.921 203.064C141.739 193.572 142.682 183.682 147.583 175.599C152.02 168.279 159.706 163.042 168.036 162.105C176.366 161.168 185.137 164.707 190.332 171.477C195.527 178.247 196.799 188.09 193.16 195.863C190.48 201.589 185.542 205.85 180.368 209.317C163.649 220.425 143.597 224.942 123.901 222.037" fill="#2EFF9B"/>
<path d="M182.094 164.903C175.221 170.668 168.916 177.115 163.269 184.152C154.432 195.127 147.282 207.433 142.066 220.639C141.684 221.602 143.203 222.022 143.581 221.069C152.115 199.606 165.738 180.688 183.205 166.047C183.99 165.389 182.872 164.251 182.094 164.903Z" fill="#1E1E1E"/>
<path d="M136.57 107.487C143.646 107.487 149.381 101.581 149.381 94.2953C149.381 87.0097 143.646 81.1035 136.57 81.1035C129.495 81.1035 123.759 87.0097 123.759 94.2953C123.759 101.581 129.495 107.487 136.57 107.487Z" fill="#020203"/>
<path d="M97.071 48.8209H185.334V53.7935H108.339C103.812 53.7935 99.3288 54.7117 95.1463 56.4956C90.9639 58.2795 87.1636 60.8943 83.9625 64.1906C80.7614 67.4869 78.2221 71.4002 76.4897 75.707C74.7572 80.0138 73.8656 84.6299 73.8656 89.2915V145.786H64.2076C63.7807 145.786 63.3713 145.611 63.0694 145.3C62.7676 144.99 62.598 144.568 62.598 144.128V84.3189C62.598 79.6573 63.4896 75.0412 65.2221 70.7344C66.9545 66.4276 69.4938 62.5143 72.6949 59.218C75.896 55.9217 79.6963 53.307 83.8787 51.523C88.0612 49.7391 92.5439 48.8209 97.071 48.8209Z" fill="#020203"/>
<path d="M114.048 221.107V145.573H135.537V221.107C135.537 221.615 135.341 222.101 134.992 222.46C134.643 222.819 134.171 223.021 133.678 223.022H115.908C115.415 223.021 114.942 222.819 114.593 222.46C114.245 222.101 114.049 221.615 114.048 221.107Z" fill="#29303D"/>
<path d="M58.0522 144.084V82.6634C58.0629 72.8857 61.8397 63.5116 68.5539 56.5976C75.2682 49.6837 84.3715 45.7946 93.8669 45.7836H184.921V146.211H60.1185C59.5706 146.211 59.0454 145.986 58.6581 145.588C58.2707 145.189 58.0528 144.648 58.0522 144.084ZM184.095 46.6347H93.8669C84.5907 46.6455 75.6974 50.4448 69.1381 57.1992C62.5788 63.9535 58.8892 73.1113 58.8787 82.6634V144.084C58.8791 144.422 59.0098 144.747 59.2422 144.986C59.4746 145.225 59.7898 145.36 60.1185 145.36H184.095V46.6347Z" fill="#29303D"/>
<path d="M136.57 101.104C134.598 101.102 132.707 100.294 131.313 98.858C129.918 97.422 129.134 95.4751 129.132 93.4443V38.5494C129.131 38.2109 129.001 37.8864 128.768 37.6471C128.536 37.4077 128.221 37.2731 127.892 37.2727H98.9643C98.4165 37.2721 97.8913 37.0477 97.5039 36.6488C97.1166 36.2499 96.8986 35.7091 96.898 35.145V15.1446C96.8986 14.5805 97.1166 14.0396 97.5039 13.6408C97.8913 13.2419 98.4165 13.0175 98.9643 13.0168H141.943C142.49 13.0175 143.016 13.2419 143.403 13.6408C143.79 14.0396 144.008 14.5804 144.009 15.1446V93.4443C144.007 95.4751 143.222 97.422 141.828 98.858C140.433 100.294 138.543 101.102 136.57 101.104Z" fill="#2EABD3"/>
<path d="M188.227 44.9325C194.461 44.9191 200.445 47.4564 204.863 51.9862C209.28 56.516 211.769 62.6673 211.783 69.0869V139.008H258.067C259.926 139.004 261.711 139.76 263.028 141.111C264.346 142.462 265.088 144.297 265.092 146.212H164.672V69.0869C164.685 62.6673 167.174 56.516 171.591 51.9862C176.009 47.4564 181.993 44.9191 188.227 44.9325Z" fill="#29303D"/>
<path d="M182.575 84.7494L187.452 105.497L282.865 81.7129L277.987 60.9651C277.928 60.7115 277.808 60.4772 277.638 60.2842C277.467 60.0911 277.252 59.9455 277.013 59.8608C276.836 59.7968 276.649 59.7678 276.461 59.7754L221.309 30.3696C220.986 30.1997 220.614 30.1543 220.261 30.2416C219.909 30.329 219.598 30.5433 219.385 30.8459L192.804 69.0144L182.784 83.4074C182.766 83.4326 182.753 83.4616 182.747 83.4923C182.74 83.523 182.74 83.5547 182.747 83.5854C182.543 83.9349 182.481 84.3531 182.575 84.7494Z" fill="#1E1E1E"/>
<path d="M182.747 83.5854C182.752 83.6124 182.762 83.6381 182.776 83.6612C182.79 83.6843 182.809 83.7042 182.831 83.7198C182.857 83.738 182.886 83.7507 182.917 83.7569C182.948 83.7632 182.979 83.7629 183.01 83.7562C183.06 83.7425 183.104 83.7113 183.134 83.668L183.168 83.6189L183.69 82.8676L193.165 69.2654L219.738 31.1057C219.889 30.8895 220.111 30.7364 220.363 30.6742C220.615 30.612 220.88 30.6449 221.11 30.7669L275.836 59.9449L276.327 60.2073C276.347 60.2159 276.367 60.2233 276.388 60.2293C276.425 60.2224 276.462 60.2187 276.5 60.2183C276.551 60.2006 276.594 60.1633 276.62 60.1141C276.633 60.0882 276.641 60.0598 276.644 60.0307C276.647 60.0015 276.644 59.972 276.635 59.944C276.627 59.916 276.613 59.89 276.595 59.8674C276.577 59.8449 276.554 59.8262 276.529 59.8125L276.461 59.7754L221.309 30.3696C220.986 30.1997 220.614 30.1543 220.261 30.2416C219.909 30.329 219.598 30.5433 219.385 30.8459L192.804 69.0144L182.784 83.4074C182.766 83.4326 182.753 83.4615 182.747 83.4923C182.74 83.523 182.74 83.5547 182.747 83.5854Z" fill="#29303D"/>
<path d="M211.402 85.701L213.526 85.9436L229.289 87.7417L239.738 88.9329L240.355 89.0036L253.394 78.5162L253.894 78.1145L256.974 75.6377L267.931 66.8263L267.996 66.2074L271.893 29.9878C271.947 29.4891 271.806 28.989 271.501 28.5972C271.197 28.2054 270.754 27.9539 270.27 27.8977L218.259 21.9649C217.775 21.9105 217.29 22.0559 216.909 22.3693C216.529 22.6826 216.284 23.1385 216.23 23.637L213.481 49.1855L211.957 63.35L210.593 76.022L209.961 81.9069L209.776 83.6115C209.724 84.1104 209.865 84.6105 210.17 85.0021C210.475 85.3938 210.918 85.6451 211.402 85.701Z" fill="#E6E6E6"/>
<path d="M225.695 53.953L248.224 56.5225L256.214 57.4334C256.566 57.4737 256.923 57.442 257.264 57.3401C257.605 57.2383 257.923 57.0683 258.2 56.8399C258.477 56.6115 258.708 56.3292 258.879 56.009C259.05 55.6888 259.158 55.337 259.197 54.9738C259.236 54.6105 259.206 54.243 259.107 53.892C259.008 53.541 258.843 53.2135 258.621 52.9282C258.399 52.6429 258.125 52.4054 257.814 52.2292C257.503 52.0531 257.161 51.9417 256.809 51.9014L246.871 50.7681L226.291 48.4183C225.579 48.3373 224.864 48.5509 224.305 49.0123C223.745 49.4736 223.386 50.145 223.307 50.8787C223.228 51.6124 223.435 52.3484 223.883 52.9249C224.331 53.5014 224.982 53.8712 225.695 53.953Z" fill="#1E1E1E"/>
<path d="M224.412 64.2154C224.47 64.2261 224.528 64.2368 224.588 64.2427L250.74 67.2261L255.107 67.7252C255.82 67.8064 256.534 67.5927 257.094 67.1312C257.654 66.6697 258.013 65.9981 258.091 65.2643C258.17 64.5304 257.963 63.7943 257.514 63.218C257.066 62.6416 256.414 62.2723 255.701 62.1911L249.388 61.4718L228.671 59.108L225.185 58.7102C224.487 58.6301 223.787 58.8323 223.232 59.2741C222.677 59.716 222.311 60.3627 222.211 61.0777C222.11 61.7926 222.284 62.5198 222.695 63.1053C223.105 63.6909 223.721 64.089 224.412 64.2154Z" fill="#1E1E1E"/>
<path d="M221.452 73.3151C221.666 73.6815 221.96 73.992 222.31 74.2227C222.659 74.4534 223.056 74.5979 223.469 74.645L234.188 75.8675L253.279 78.0455L253.284 78.0444L253.894 78.1145L256.974 75.6377C256.993 75.4496 256.993 75.2599 256.974 75.0718C256.909 74.44 256.637 73.85 256.202 73.3993C255.767 72.9486 255.196 72.6644 254.583 72.5935L251.931 72.2901L241.411 71.0912L233.841 70.2268L224.063 69.1109C223.562 69.0538 223.056 69.1421 222.601 69.366C222.146 69.5898 221.761 69.9402 221.489 70.3775C221.218 70.8149 221.07 71.3217 221.064 71.8408C221.057 72.3599 221.192 72.8706 221.452 73.3151Z" fill="#1E1E1E"/>
<path d="M236.508 41.4088L242.114 42.0481L244.59 42.3313L248.33 42.7575C249.042 42.8387 249.757 42.625 250.317 42.1635C250.876 41.7019 251.235 41.0304 251.314 40.2965C251.393 39.5626 251.185 38.8265 250.737 38.2502C250.289 37.6739 249.637 37.3045 248.924 37.2233L237.105 35.8763C236.393 35.7948 235.678 36.008 235.118 36.4691C234.559 36.9302 234.2 37.6014 234.12 38.3351C234.041 39.0688 234.248 39.8048 234.696 40.3812C235.144 40.9576 235.796 41.3273 236.508 41.4088Z" fill="#1E1E1E"/>
<path d="M190.672 56.8186L197.506 85.889L208.913 88.1223L219.464 90.1908L230.784 92.4089L234.401 93.1178C234.613 93.159 234.831 93.1533 235.04 93.1011C235.25 93.0489 235.446 92.9513 235.616 92.8149L238.518 90.4811L240.355 89.0036L253.394 78.5162L245.104 43.25C245.022 42.8991 244.843 42.5801 244.59 42.3312C244.367 42.111 244.094 41.952 243.796 41.8689C243.498 41.7858 243.185 41.7813 242.885 41.8558L192.026 54.5338C191.552 54.6522 191.144 54.9593 190.89 55.3877C190.636 55.8161 190.558 56.3308 190.672 56.8186Z" fill="#2EABD3"/>
<path d="M206.343 79.9451C206.512 80.6623 206.951 81.2809 207.562 81.6653C208.174 82.0497 208.909 82.1684 209.606 81.9954L239.449 74.5562C240.145 74.3816 240.745 73.9299 241.119 73.3C241.492 72.6702 241.607 71.9136 241.44 71.1963C241.432 71.1607 241.422 71.1256 241.411 71.0913C241.22 70.3996 240.777 69.8108 240.174 69.4482C239.571 69.0855 238.855 68.9772 238.177 69.146L208.334 76.5851C207.637 76.7594 207.037 77.2111 206.663 77.841C206.29 78.471 206.175 79.2277 206.343 79.9451Z" fill="#1E1E1E"/>
<path d="M208.913 88.1224L219.464 90.1909L241.814 84.6194C242.511 84.4457 243.112 83.9941 243.486 83.364C243.859 82.7339 243.974 81.9768 243.805 81.2594C243.637 80.542 243.198 79.9229 242.586 79.5384C241.974 79.1539 241.239 79.0354 240.542 79.2091L210.7 86.6483C210.076 86.8025 209.527 87.1817 209.151 87.717C209.061 87.845 208.981 87.9806 208.913 88.1224Z" fill="#1E1E1E"/>
<path d="M230.784 92.409L234.401 93.1178C234.613 93.159 234.831 93.1533 235.04 93.1011C235.25 93.0489 235.446 92.9513 235.616 92.815L238.518 90.4811L230.784 92.409Z" fill="#1E1E1E"/>
<path d="M212.356 64.357C212.525 65.0741 212.964 65.6928 213.576 66.0772C214.187 66.4616 214.922 66.5803 215.619 66.4073L227.178 63.5259C227.874 63.3513 228.475 62.8996 228.848 62.2697C229.221 61.6399 229.336 60.8833 229.169 60.166C229.079 59.7805 228.909 59.4196 228.671 59.108C228.351 58.6867 227.92 58.3692 227.43 58.1932C226.94 58.0173 226.411 57.9904 225.906 58.1157L214.347 60.9971C213.65 61.1708 213.049 61.6224 212.676 62.2525C212.302 62.8826 212.187 63.6396 212.356 64.357Z" fill="#1E1E1E"/>
<path d="M219.463 90.1907L230.785 92.4093L234.401 93.1184C234.613 93.1591 234.831 93.1532 235.04 93.101C235.249 93.0488 235.445 92.9516 235.615 92.8157L238.519 90.4813L237.5 90.7353L235.349 92.4634C235.228 92.5605 235.087 92.6299 234.938 92.6672C234.788 92.7045 234.633 92.7087 234.482 92.6796L231.804 92.1552L220.482 89.9366L219.463 90.1907ZM253.283 78.0461L253.393 78.515L253.895 78.1129L253.283 78.0461ZM219.463 90.1907L230.785 92.4093L234.401 93.1184C234.613 93.1591 234.831 93.1532 235.04 93.101C235.249 93.0488 235.445 92.9516 235.615 92.8157L238.519 90.4813L237.5 90.7353L235.349 92.4634C235.228 92.5605 235.087 92.6299 234.938 92.6672C234.788 92.7045 234.633 92.7087 234.482 92.6796L231.804 92.1552L220.482 89.9366L219.463 90.1907ZM219.463 90.1907L230.785 92.4093L234.401 93.1184C234.613 93.1591 234.831 93.1532 235.04 93.101C235.249 93.0488 235.445 92.9516 235.615 92.8157L238.519 90.4813L237.5 90.7353L235.349 92.4634C235.228 92.5605 235.087 92.6299 234.938 92.6672C234.788 92.7045 234.633 92.7087 234.482 92.6796L231.804 92.1552L220.482 89.9366L219.463 90.1907ZM182.575 84.7493L195.351 139.095C195.446 139.497 195.691 139.843 196.034 140.059C196.376 140.274 196.788 140.34 197.178 140.244L289.648 117.193C290.038 117.095 290.375 116.842 290.584 116.49C290.793 116.137 290.857 115.713 290.763 115.311L277.987 60.9651C277.928 60.7114 277.808 60.4772 277.638 60.2841C277.467 60.0911 277.252 59.9455 277.013 59.8608C276.836 59.7967 276.649 59.7677 276.461 59.7754C276.243 59.7819 276.029 59.8398 275.836 59.9449C275.746 59.9885 275.662 60.0423 275.585 60.1053L267.996 66.2075L256.974 75.073L253.282 78.0429L253.283 78.0461L253.279 78.0469L239.739 88.9314L237.5 90.7353L235.349 92.4634C235.228 92.5605 235.087 92.6299 234.938 92.6672C234.788 92.7045 234.633 92.7087 234.482 92.6796L231.804 92.1552L220.482 89.9366L209.15 87.7171L184.329 82.8533C184.118 82.8101 183.899 82.815 183.69 82.8675C183.407 82.9386 183.151 83.0916 182.951 83.3084C182.874 83.3935 182.806 83.4863 182.747 83.5854C182.543 83.9349 182.481 84.3531 182.575 84.7493ZM219.463 90.1907L230.785 92.4093L234.401 93.1184C234.613 93.1591 234.831 93.1532 235.04 93.101C235.249 93.0488 235.445 92.9516 235.615 92.8157L238.519 90.4813L237.5 90.7353L235.349 92.4634C235.228 92.5605 235.087 92.6299 234.938 92.6672C234.788 92.7045 234.633 92.7087 234.482 92.6796L231.804 92.1552L220.482 89.9366L219.463 90.1907ZM219.463 90.1907L230.785 92.4093L234.401 93.1184C234.613 93.1591 234.831 93.1532 235.04 93.101C235.249 93.0488 235.445 92.9516 235.615 92.8157L238.519 90.4813L237.5 90.7353L235.349 92.4634C235.228 92.5605 235.087 92.6299 234.938 92.6672C234.788 92.7045 234.633 92.7087 234.482 92.6796L231.804 92.1552L220.482 89.9366L219.463 90.1907ZM219.463 90.1907L230.785 92.4093L234.401 93.1184C234.613 93.1591 234.831 93.1532 235.04 93.101C235.249 93.0488 235.445 92.9516 235.615 92.8157L238.519 90.4813L237.5 90.7353L235.349 92.4634C235.228 92.5605 235.087 92.6299 234.938 92.6672C234.788 92.7045 234.633 92.7087 234.482 92.6796L231.804 92.1552L220.482 89.9366L219.463 90.1907Z" fill="#1E1E1E"/>
<path d="M219.463 90.1908L230.785 92.4094L234.401 93.1185C234.613 93.1592 234.831 93.1533 235.04 93.1011C235.249 93.049 235.445 92.9517 235.615 92.8158L238.519 90.4814L237.5 90.7354L235.349 92.4635C235.228 92.5606 235.087 92.6301 234.938 92.6673C234.788 92.7046 234.633 92.7088 234.482 92.6797L231.804 92.1553L220.482 89.9367L219.463 90.1908ZM253.283 78.0462L253.393 78.5151L253.895 78.113L253.283 78.0462ZM219.463 90.1908L230.785 92.4094L234.401 93.1185C234.613 93.1592 234.831 93.1533 235.04 93.1011C235.249 93.049 235.445 92.9517 235.615 92.8158L238.519 90.4814L237.5 90.7354L235.349 92.4635C235.228 92.5606 235.087 92.6301 234.938 92.6673C234.788 92.7046 234.633 92.7088 234.482 92.6797L231.804 92.1553L220.482 89.9367L219.463 90.1908ZM219.463 90.1908L230.785 92.4094L234.401 93.1185C234.613 93.1592 234.831 93.1533 235.04 93.1011C235.249 93.049 235.445 92.9517 235.615 92.8158L238.519 90.4814L237.5 90.7354L235.349 92.4635C235.228 92.5606 235.087 92.6301 234.938 92.6673C234.788 92.7046 234.633 92.7088 234.482 92.6797L231.804 92.1553L220.482 89.9367L219.463 90.1908ZM183.168 83.619L183.224 83.6624C183.233 83.6465 183.25 83.6323 183.262 83.6157C183.387 83.4815 183.543 83.3814 183.715 83.3244C183.887 83.2674 184.07 83.2552 184.248 83.289L208.913 88.1206L219.463 90.1908L230.785 92.4094L234.401 93.1185C234.613 93.1592 234.831 93.1533 235.04 93.1011C235.249 93.049 235.445 92.9517 235.615 92.8158L238.519 90.4814L237.5 90.7354L235.349 92.4635C235.228 92.5606 235.087 92.6301 234.938 92.6673C234.788 92.7046 234.633 92.7088 234.482 92.6797L231.804 92.1553L220.482 89.9367L209.15 87.7173L184.329 82.8534C184.118 82.8102 183.899 82.8151 183.69 82.8677L183.168 83.619ZM182.575 84.7494L195.351 139.095C195.446 139.497 195.691 139.844 196.034 140.059C196.376 140.274 196.788 140.341 197.178 140.244L289.648 117.193C290.038 117.095 290.375 116.842 290.584 116.49C290.793 116.137 290.857 115.713 290.763 115.311L277.987 60.9652C277.928 60.7115 277.808 60.4773 277.638 60.2843C277.467 60.0912 277.252 59.9456 277.013 59.8609C276.836 59.7969 276.649 59.7679 276.461 59.7755C276.243 59.782 276.029 59.84 275.836 59.945C275.746 59.9886 275.662 60.0424 275.585 60.1054L267.996 66.2076L256.974 75.0731L253.282 78.043L253.283 78.0462L253.279 78.047L239.739 88.9315L237.5 90.7354L235.349 92.4635C235.228 92.5606 235.087 92.6301 234.938 92.6673C234.788 92.7046 234.633 92.7088 234.482 92.6797L231.804 92.1553L220.482 89.9367L209.15 87.7173L184.329 82.8534C184.118 82.8102 183.899 82.8151 183.69 82.8677C183.407 82.9387 183.151 83.0917 182.951 83.3085C182.874 83.3936 182.806 83.4864 182.747 83.5855C182.543 83.935 182.481 84.3532 182.575 84.7494ZM182.996 84.6444C182.958 84.4842 182.956 84.3174 182.989 84.1561C183.022 83.9948 183.089 83.8431 183.187 83.7122C183.195 83.693 183.208 83.676 183.224 83.6624C183.233 83.6465 183.25 83.6323 183.262 83.6157C183.387 83.4815 183.543 83.3814 183.715 83.3244C183.887 83.2674 184.07 83.2552 184.248 83.289L208.913 88.1206L219.463 90.1908L230.785 92.4094L234.401 93.1185C234.613 93.1592 234.831 93.1533 235.04 93.1011C235.249 93.049 235.445 92.9517 235.615 92.8158L238.519 90.4814L240.356 89.0039L253.393 78.5151L253.895 78.113L256.972 75.6374L267.931 66.8247L275.854 60.4537C275.974 60.357 276.113 60.2878 276.262 60.2507C276.303 60.2403 276.345 60.2331 276.388 60.2294C276.425 60.2225 276.462 60.2188 276.5 60.2183C276.627 60.2171 276.752 60.2383 276.872 60.2809C277.043 60.3421 277.196 60.4463 277.318 60.584C277.439 60.7218 277.526 60.8886 277.569 61.0695L290.345 115.416C290.379 115.558 290.385 115.706 290.363 115.851C290.341 115.995 290.291 116.134 290.217 116.259C290.143 116.385 290.046 116.493 289.931 116.58C289.816 116.666 289.685 116.728 289.547 116.762L197.077 139.813C196.798 139.882 196.504 139.834 196.259 139.68C196.014 139.526 195.839 139.278 195.772 138.99L182.996 84.6444ZM219.463 90.1908L230.785 92.4094L234.401 93.1185C234.613 93.1592 234.831 93.1533 235.04 93.1011C235.249 93.049 235.445 92.9517 235.615 92.8158L238.519 90.4814L237.5 90.7354L235.349 92.4635C235.228 92.5606 235.087 92.6301 234.938 92.6673C234.788 92.7046 234.633 92.7088 234.482 92.6797L231.804 92.1553L220.482 89.9367L219.463 90.1908ZM219.463 90.1908L230.785 92.4094L234.401 93.1185C234.613 93.1592 234.831 93.1533 235.04 93.1011C235.249 93.049 235.445 92.9517 235.615 92.8158L238.519 90.4814L237.5 90.7354L235.349 92.4635C235.228 92.5606 235.087 92.6301 234.938 92.6673C234.788 92.7046 234.633 92.7088 234.482 92.6797L231.804 92.1553L220.482 89.9367L219.463 90.1908ZM219.463 90.1908L230.785 92.4094L234.401 93.1185C234.613 93.1592 234.831 93.1533 235.04 93.1011C235.249 93.049 235.445 92.9517 235.615 92.8158L238.519 90.4814L237.5 90.7354L235.349 92.4635C235.228 92.5606 235.087 92.6301 234.938 92.6673C234.788 92.7046 234.633 92.7088 234.482 92.6797L231.804 92.1553L220.482 89.9367L219.463 90.1908Z" fill="#29303D"/>
<path d="M265.548 106.516C265.339 105.625 265.483 104.686 265.946 103.904C266.409 103.122 267.155 102.562 268.019 102.345L279.69 99.4357C280.554 99.2237 281.464 99.3729 282.221 99.8504C282.978 100.328 283.52 101.095 283.729 101.984C283.938 102.872 283.796 103.81 283.335 104.591C282.874 105.372 282.131 105.933 281.269 106.152L269.598 109.061C268.733 109.275 267.821 109.128 267.062 108.651C266.302 108.174 265.758 107.406 265.548 106.516Z" fill="#2EABD3"/>
<path d="M136.57 96.423C138.168 96.423 139.463 95.0894 139.463 93.4442C139.463 91.7991 138.168 90.4655 136.57 90.4655C134.973 90.4655 133.678 91.7991 133.678 93.4442C133.678 95.0894 134.973 96.423 136.57 96.423Z" fill="#1E1E1E"/>
</g>
<defs>
<clipPath id="clip0_40_3095">
<rect width="238.24" height="210.005" fill="white" transform="translate(52.5655 13.0168)"/>
</clipPath>
</defs>
</svg>
