<svg width="58" height="58" viewBox="0 0 58 58" fill="none" xmlns="http://www.w3.org/2000/svg">
<path opacity="0.925" fill-rule="evenodd" clip-rule="evenodd" d="M30.416 1.41605C30.683 1.39755 30.9473 1.41643 31.209 1.47269C31.3412 1.52933 31.4356 1.62372 31.4922 1.75589C31.5678 3.7572 31.5678 5.75849 31.4922 7.7598C30.9105 8.26469 30.4197 8.18918 30.0196 7.53323C29.944 5.68298 29.944 3.83271 30.0196 1.98245C30.0487 1.70984 30.1809 1.52103 30.416 1.41605Z" fill="url(#paint0_linear_159_12881)"/>
<path opacity="0.897" fill-rule="evenodd" clip-rule="evenodd" d="M21.3535 3.00197C21.7344 2.95321 22.0553 3.06649 22.3164 3.34182C23.0217 5.08008 23.6826 6.83594 24.2988 8.6094C24.028 9.50175 23.5182 9.67167 22.7695 9.11916C22.0667 7.36946 21.4437 5.59473 20.9004 3.79494C20.8661 3.41611 21.0171 3.15179 21.3535 3.00197Z" fill="url(#paint1_linear_159_12881)"/>
<path opacity="0.899" fill-rule="evenodd" clip-rule="evenodd" d="M39.705 3.00207C40.5658 2.98328 40.8867 3.39865 40.6679 4.24817C40.086 5.88062 39.4819 7.50431 38.8554 9.11926C38.4023 9.57239 37.9492 9.57239 37.4961 9.11926C37.3487 8.90804 37.3108 8.68148 37.3828 8.43958C37.9492 6.89139 38.5156 5.34322 39.082 3.79504C39.1915 3.44154 39.3992 3.17721 39.705 3.00207Z" fill="url(#paint2_linear_159_12881)"/>
<path opacity="0.895" fill-rule="evenodd" clip-rule="evenodd" d="M13.3106 7.75988C13.63 7.73128 13.932 7.78792 14.2168 7.92981C15.3261 9.30368 16.4778 10.6442 17.6719 11.9513C17.995 12.9502 17.6362 13.3467 16.5957 13.1407C15.4063 11.8003 14.2168 10.4597 13.0274 9.11926C12.7468 8.57202 12.8411 8.11889 13.3106 7.75988Z" fill="url(#paint3_linear_159_12881)"/>
<path opacity="0.895" fill-rule="evenodd" clip-rule="evenodd" d="M47.6347 7.75977C48.6035 7.76459 48.9244 8.21772 48.5976 9.11914C47.4082 10.4596 46.2187 11.8002 45.0292 13.1406C43.9888 13.3466 43.63 12.9501 43.9531 11.9512C45.1301 10.4988 46.3572 9.10164 47.6347 7.75977Z" fill="url(#paint4_linear_159_12881)"/>
<path opacity="0.917" fill-rule="evenodd" clip-rule="evenodd" d="M30.6426 10.252C30.9681 10.2659 31.2513 10.3792 31.4922 10.5918C31.9264 11.4603 32.3607 12.3287 32.7949 13.1973C33.8369 13.4516 34.8942 13.6593 35.9668 13.8203C36.3682 14.1539 36.4626 14.5504 36.25 15.0098C35.5136 15.7461 34.7773 16.4824 34.041 17.2187C34.2414 18.1941 34.4302 19.1759 34.6074 20.1641C34.4328 20.8291 34.0174 21.0557 33.3613 20.8437C32.501 20.4231 31.6514 19.9888 30.8125 19.541C29.9735 19.9888 29.1239 20.4231 28.2636 20.8437C27.2059 20.9534 26.8472 20.4814 27.1875 19.4277C27.2954 18.7041 27.4276 17.9867 27.584 17.2754C26.8681 16.5029 26.1318 15.7477 25.375 15.0098C25.1623 14.5504 25.2567 14.1539 25.6582 13.8203C26.7345 13.6803 27.7917 13.4727 28.8301 13.1973C29.2643 12.3287 29.6986 11.4603 30.1328 10.5918C30.2924 10.4467 30.4623 10.3334 30.6426 10.252ZM30.7558 12.9707C31.0783 13.5582 31.4182 14.1434 31.7754 14.7266C32.4257 14.8675 33.0676 15.0185 33.7011 15.1797C33.1141 15.6518 32.661 16.2182 32.3418 16.8789C32.4807 17.4663 32.575 18.0516 32.625 18.6348C32.0589 18.2761 31.4548 18.0117 30.8125 17.8418C30.1702 18.0117 29.566 18.2761 29 18.6348C29.0499 18.0516 29.1443 17.4663 29.2832 16.8789C28.964 16.2182 28.5108 15.6518 27.9238 15.1797C28.5574 15.0185 29.1992 14.8675 29.8496 14.7266C30.2269 14.1796 30.5289 13.5943 30.7558 12.9707Z" fill="url(#paint5_linear_159_12881)"/>
<path opacity="0.921" fill-rule="evenodd" clip-rule="evenodd" d="M18.9746 16.9355C19.3555 16.8868 19.6764 17.0001 19.9375 17.2754C20.3717 18.1439 20.806 19.0123 21.2402 19.8809C22.1685 20.1187 23.1124 20.2887 24.0723 20.3906C24.7781 20.5813 24.9858 21.0156 24.6953 21.6934C24.0156 22.373 23.3359 23.0527 22.6563 23.7324C22.689 24.7606 22.8212 25.7801 23.0527 26.791C22.9042 27.4869 22.4889 27.7323 21.8066 27.5273C20.9818 27.0488 20.1322 26.6146 19.2578 26.2246C18.4189 26.6724 17.5692 27.1067 16.709 27.5273C15.6513 27.637 15.2925 27.165 15.6328 26.1113C15.7408 25.3877 15.873 24.6703 16.0293 23.959C15.3135 23.1865 14.5771 22.4313 13.8203 21.6934C13.5662 20.9579 13.8117 20.5237 14.5566 20.3906C15.4674 20.264 16.3737 20.113 17.2754 19.9375C17.7618 19.0212 18.2339 18.0961 18.6914 17.1621C18.8041 17.098 18.8985 17.0224 18.9746 16.9355ZM17.502 25.2051C17.5843 24.5616 17.641 23.9197 17.6719 23.2793C17.2587 22.7716 16.8244 22.2807 16.3691 21.8066C17.0126 21.6797 17.6545 21.5476 18.2949 21.4102C18.659 20.8521 18.9801 20.2668 19.2578 19.6543C19.5739 20.2679 19.9326 20.8533 20.334 21.4102C20.9353 21.5545 21.5394 21.6866 22.1465 21.8066C21.7289 22.243 21.3324 22.6961 20.957 23.166C20.9334 23.8902 20.9711 24.6076 21.0703 25.3184C20.5259 24.9423 19.9406 24.6401 19.3145 24.4121C18.7078 24.6778 18.1037 24.9422 17.502 25.2051Z" fill="url(#paint6_linear_159_12881)"/>
<path opacity="0.921" fill-rule="evenodd" clip-rule="evenodd" d="M41.8574 18.0685C42.3222 17.9857 42.7187 18.0989 43.0468 18.4083C43.4756 19.3226 43.9475 20.21 44.4628 21.0704C45.4447 21.2214 46.4264 21.3725 47.4082 21.5235C47.8287 21.8082 47.9607 22.2047 47.8046 22.713C47.0872 23.4304 46.3697 24.1479 45.6523 24.8653C45.7647 25.8237 45.8968 26.7866 46.0488 27.754C45.9782 28.5633 45.5628 28.8276 44.8027 28.547C43.9908 28.1128 43.179 27.6785 42.3671 27.2442C41.3977 27.7668 40.4159 28.2577 39.4218 28.7169C39.0368 28.6903 38.7725 28.5014 38.6289 28.1505C38.7667 27.021 38.88 25.8882 38.9687 24.7521C38.2548 24.1516 37.5751 23.5096 36.9296 22.8263C36.635 22.2596 36.7672 21.8254 37.3261 21.5235C38.3124 21.3693 39.2941 21.1993 40.2714 21.0138C40.8015 20.0289 41.3302 19.0472 41.8574 18.0685ZM42.3105 20.6739C42.6425 21.318 43.0201 21.9411 43.4433 22.5431C44.0546 22.625 44.6587 22.7383 45.2558 22.8829C44.7336 23.3287 44.2994 23.8384 43.9531 24.4122C43.9805 25.0222 44.0749 25.6264 44.2363 26.2247C44.1986 26.2624 44.1607 26.3003 44.123 26.338C43.551 26.0233 42.9657 25.759 42.3671 25.545C41.7347 25.7007 41.1495 25.965 40.6113 26.338C40.5736 26.2814 40.5357 26.2247 40.498 26.1681C40.6858 25.5176 40.7425 24.8568 40.6679 24.1857C40.2337 23.7514 39.7994 23.3171 39.3652 22.8829C40.0528 22.7558 40.7325 22.6048 41.4043 22.4298C41.7816 21.8829 42.0836 21.2975 42.3105 20.6739Z" fill="url(#paint7_linear_159_12881)"/>
<path opacity="0.917" fill-rule="evenodd" clip-rule="evenodd" d="M30.6426 23.2793C30.9681 23.2932 31.2513 23.4065 31.4922 23.6191C32.0253 24.7041 32.5728 25.7803 33.1347 26.8477C34.3757 27.0844 35.6218 27.311 36.873 27.5273C37.3175 27.8414 37.412 28.2378 37.1562 28.7168C36.2689 29.6041 35.3814 30.4916 34.4941 31.3789C34.7263 32.5644 34.9529 33.7538 35.1738 34.9473C35.0338 35.5545 34.6562 35.7998 34.041 35.6836C32.9895 35.0918 31.9133 34.5442 30.8125 34.041C29.7374 34.5866 28.6613 35.1342 27.584 35.6836C26.8272 35.8144 26.4874 35.4935 26.5644 34.7207C26.6923 33.6137 26.881 32.5186 27.1308 31.4355C26.264 30.5121 25.3767 29.6058 24.4687 28.7168C24.2561 28.2574 24.3505 27.861 24.7519 27.5273C25.9986 27.3143 27.2447 27.1065 28.4902 26.9043C29.1044 25.7893 29.6897 24.6565 30.2461 23.5059C30.3936 23.4396 30.5258 23.3641 30.6426 23.2793ZM30.7558 25.998C31.1631 26.7929 31.6162 27.567 32.1152 28.3203C32.9383 28.5163 33.769 28.6862 34.6074 28.8301C34.0804 29.4137 33.5329 29.9801 32.9648 30.5293C32.9193 30.6847 32.8626 30.8357 32.7949 30.9824C32.9982 31.7841 33.1115 32.5771 33.1347 33.3613C32.386 32.8926 31.593 32.5149 30.7558 32.2285C29.9697 32.5462 29.2144 32.9237 28.4902 33.3613C28.4525 33.3047 28.4147 33.248 28.3769 33.1914C28.614 32.3171 28.7084 31.4298 28.6601 30.5293C28.092 29.9801 27.5445 29.4137 27.0176 28.8301C27.8559 28.6862 28.6866 28.5163 29.5097 28.3203C30.0288 27.6032 30.4442 26.8291 30.7558 25.998Z" fill="url(#paint8_linear_159_12881)"/>
<path opacity="0.922" fill-rule="evenodd" clip-rule="evenodd" d="M26.5645 36.7597C28.0918 36.4445 29.3567 36.8599 30.3594 38.0058C31.0494 39.6455 30.7283 41.0615 29.3965 42.2539C27.6785 43.2449 25.9792 44.2644 24.2988 45.3125C26.7883 45.5227 29.2805 45.636 31.7754 45.6523C34.4088 44.0391 37.0143 42.3776 39.5918 40.6679C40.9584 39.9411 42.3555 39.8657 43.7832 40.4414C44.1539 40.7733 44.4748 41.1319 44.7461 41.5175C45.9414 41.143 47.0931 41.2374 48.2012 41.8008C48.9406 42.3631 49.1859 43.0994 48.9375 44.0097C48.7935 44.342 48.6047 44.644 48.3711 44.916C44.0592 48.1701 39.6223 51.2476 35.0606 54.1484C34.2813 54.5569 33.4883 54.9345 32.6816 55.2812C27.0948 55.46 21.5062 55.5733 15.916 55.6211C15.6438 55.9685 15.304 56.2328 14.8965 56.414C13.5731 56.4427 12.2516 56.4993 10.9316 56.584C9.81888 56.605 9.15808 56.0765 8.94922 54.998C8.8737 51.222 8.8737 47.4459 8.94922 43.6699C9.1569 43.1601 9.51563 42.8014 10.0254 42.5937C11.3487 42.5651 12.6703 42.5084 13.9902 42.4238C14.8374 42.3657 15.4604 42.7055 15.8594 43.4433C17.2057 41.8923 18.8483 40.7783 20.7871 40.1015C21.8066 39.3841 22.8262 38.6666 23.8457 37.9492C24.7235 37.4528 25.6298 37.0563 26.5645 36.7597ZM26.9043 38.3457C27.5392 38.2786 28.1435 38.373 28.7168 38.6289C29.1747 39.0681 29.269 39.5778 29 40.1582C28.721 40.5507 28.4001 40.9093 28.0371 41.2343C26.3166 42.1259 24.6551 43.1076 23.0527 44.1797C22.519 44.5802 22.1413 45.09 21.9199 45.709C21.9608 46.0705 22.1497 46.316 22.4863 46.4453C27.2569 47.3185 32.0525 47.545 36.8731 47.125C39.7668 45.6969 42.6744 44.2998 45.5957 42.9336C46.2206 42.8088 46.8059 42.9033 47.3516 43.2168C47.4271 43.33 47.4271 43.4433 47.3516 43.5566C43.1386 46.8056 38.7773 49.8454 34.2676 52.6758C33.6195 53.0753 32.9398 53.4151 32.2285 53.6953C26.8296 53.836 21.4299 53.9303 16.0293 53.9785C16.0104 51.1462 16.0293 48.3142 16.0859 45.4824C17.2083 44.3595 18.3978 43.3211 19.6543 42.3672C20.4189 42.0493 21.1742 41.7094 21.9199 41.3476C22.9395 40.6302 23.959 39.9127 24.9785 39.1953C25.6084 38.8543 26.2503 38.5711 26.9043 38.3457ZM41.4043 41.6308C41.9103 41.5893 42.4012 41.6459 42.877 41.8008C43.0328 42.0885 42.9574 42.315 42.6504 42.4804C40.4841 43.5069 38.3318 44.5642 36.1934 45.6523C35.7383 45.7283 35.2852 45.766 34.834 45.7656C36.9778 44.2982 39.1679 42.9199 41.4043 41.6308ZM10.4785 44.123C11.8002 44.123 13.1217 44.123 14.4434 44.123C14.4434 47.7103 14.4434 51.2975 14.4434 54.8847C13.1315 54.9211 11.8287 54.8834 10.5352 54.7715C10.4785 51.2221 10.4596 47.6727 10.4785 44.123Z" fill="url(#paint9_linear_159_12881)"/>
<defs>
<linearGradient id="paint0_linear_159_12881" x1="30.7559" y1="1.40918" x2="30.7559" y2="8.0892" gradientUnits="userSpaceOnUse">
<stop stop-color="#2E69FF"/>
<stop offset="1" stop-color="#0AD9BE"/>
</linearGradient>
<linearGradient id="paint1_linear_159_12881" x1="22.5972" y1="2.99097" x2="22.5972" y2="9.43608" gradientUnits="userSpaceOnUse">
<stop stop-color="#2E69FF"/>
<stop offset="1" stop-color="#0AD9BE"/>
</linearGradient>
<linearGradient id="paint2_linear_159_12881" x1="39.0409" y1="3.00146" x2="39.0409" y2="9.45911" gradientUnits="userSpaceOnUse">
<stop stop-color="#2E69FF"/>
<stop offset="1" stop-color="#0AD9BE"/>
</linearGradient>
<linearGradient id="paint3_linear_159_12881" x1="15.3283" y1="7.75269" x2="15.3283" y2="13.1935" gradientUnits="userSpaceOnUse">
<stop stop-color="#2E69FF"/>
<stop offset="1" stop-color="#0AD9BE"/>
</linearGradient>
<linearGradient id="paint4_linear_159_12881" x1="46.2798" y1="7.75977" x2="46.2798" y2="13.1934" gradientUnits="userSpaceOnUse">
<stop stop-color="#2E69FF"/>
<stop offset="1" stop-color="#0AD9BE"/>
</linearGradient>
<linearGradient id="paint5_linear_159_12881" x1="30.8125" y1="10.252" x2="30.8125" y2="20.9206" gradientUnits="userSpaceOnUse">
<stop stop-color="#2E69FF"/>
<stop offset="1" stop-color="#0AD9BE"/>
</linearGradient>
<linearGradient id="paint6_linear_159_12881" x1="19.2729" y1="16.9246" x2="19.2729" y2="27.5973" gradientUnits="userSpaceOnUse">
<stop stop-color="#2E69FF"/>
<stop offset="1" stop-color="#0AD9BE"/>
</linearGradient>
<linearGradient id="paint7_linear_159_12881" x1="42.3226" y1="18.0422" x2="42.3226" y2="28.7169" gradientUnits="userSpaceOnUse">
<stop stop-color="#2E69FF"/>
<stop offset="1" stop-color="#0AD9BE"/>
</linearGradient>
<linearGradient id="paint8_linear_159_12881" x1="30.8273" y1="23.2793" x2="30.8273" y2="35.712" gradientUnits="userSpaceOnUse">
<stop stop-color="#2E69FF"/>
<stop offset="1" stop-color="#0AD9BE"/>
</linearGradient>
<linearGradient id="paint9_linear_159_12881" x1="28.9619" y1="36.6577" x2="28.9619" y2="56.5846" gradientUnits="userSpaceOnUse">
<stop stop-color="#2E69FF"/>
<stop offset="1" stop-color="#0AD9BE"/>
</linearGradient>
</defs>
</svg>
