<svg width="21" height="21" viewBox="0 0 21 21" fill="none" xmlns="http://www.w3.org/2000/svg">
<g clip-path="url(#clip0_7_498)">
<path d="M10.6436 15.627L15.8936 17.6367C16.1356 17.7269 16.3899 17.5424 16.3776 17.284L16.0905 11.6689C16.0864 11.5828 16.1151 11.4967 16.1684 11.427L19.7039 7.05468C19.868 6.85371 19.7696 6.55429 19.5194 6.48457L14.0889 5.02441C14.0028 4.9998 13.9289 4.94648 13.8838 4.87265L10.8159 0.164059C10.6764 -0.0533234 10.3565 -0.0533234 10.217 0.164059L7.14905 4.87675C7.09983 4.95058 7.02601 5.0039 6.94398 5.02851L1.51351 6.48867C1.26331 6.55429 1.16487 6.85781 1.32894 7.05879L4.86038 11.4311C4.9137 11.5008 4.94241 11.5869 4.93831 11.673L4.6512 17.2881C4.6389 17.5465 4.8932 17.7311 5.13519 17.6408L10.3852 15.6311C10.4713 15.5982 10.5616 15.5982 10.6436 15.627Z" fill="#FFB636"/>
<path d="M2.29279 2.1205L3.97443 0.438861C4.02365 0.389642 4.08927 0.369135 4.1549 0.377338C4.22052 0.385541 4.28205 0.426556 4.31486 0.483978L6.04982 3.90058C6.09904 3.98671 6.08263 4.08925 6.01291 4.15898C5.97189 4.19999 5.91447 4.2205 5.86115 4.2205C5.82423 4.2205 5.78732 4.2123 5.75451 4.19179L2.34201 2.46093C2.28458 2.42812 2.24357 2.3707 2.23536 2.30097C2.22306 2.23535 2.24767 2.16972 2.29279 2.1205ZM14.8846 3.90468L16.6195 0.48808C16.6524 0.430658 16.7098 0.389642 16.7795 0.381439C16.8451 0.373236 16.9149 0.393744 16.96 0.442963L18.6416 2.1246C18.6908 2.17382 18.7113 2.23945 18.7031 2.30507C18.6949 2.3707 18.6539 2.43222 18.5965 2.46503L15.1799 4.19999C15.1471 4.2205 15.1102 4.2287 15.0733 4.2287C15.0158 4.2287 14.9625 4.2082 14.9215 4.16718C14.8518 4.09335 14.8395 3.98671 14.8846 3.90468ZM9.11369 20.7211L10.3031 17.0789C10.3113 17.042 10.3318 17.0092 10.3565 16.9846C10.3975 16.9436 10.4508 16.923 10.5082 16.923C10.6067 16.923 10.6887 16.9887 10.7174 17.083L11.9068 20.7252C11.9233 20.7908 11.9109 20.8605 11.8699 20.9139C11.8289 20.9672 11.7674 21 11.6977 21H9.32286C9.25724 21 9.19162 20.9672 9.1506 20.9139C9.10548 20.8564 9.09318 20.7867 9.11369 20.7211Z" fill="#FFD469"/>
</g>
<defs>
<clipPath id="clip0_7_498">
<rect width="21" height="21" fill="white" transform="matrix(-1 0 0 1 21 0)"/>
</clipPath>
</defs>
</svg>
