<svg width="488" height="355" viewBox="0 0 488 355" fill="none" xmlns="http://www.w3.org/2000/svg">
<g opacity="0.4">
<path fill-rule="evenodd" clip-rule="evenodd" d="M69.3902 87.6531V70.1911C69.3902 70.1911 98.1312 55.8325 98.3591 55.9566L126.789 70.3359V87.7772C126.789 87.7772 126.851 88.0669 126.624 88.191L98.5871 104.308C98.3799 104.432 98.0276 104.432 97.8204 104.308L69.5353 88.0462C69.328 87.922 69.3902 87.6531 69.3902 87.6531Z" fill="#EDEDED"/>
<path fill-rule="evenodd" clip-rule="evenodd" d="M69.5352 69.9015L97.5716 53.7843C97.7788 53.6601 98.1311 53.6601 98.3383 53.7843L126.603 70.0463C126.81 70.1704 126.81 70.3773 126.603 70.5015L98.587 86.598C98.3798 86.7221 98.0275 86.7221 97.8203 86.598L69.5352 70.3566C69.328 70.2325 69.328 70.0256 69.5352 69.9015Z" fill="#F3F3F3"/>
<path fill-rule="evenodd" clip-rule="evenodd" d="M98.5135 86.6749L98.1036 104.404C97.9793 104.404 97.8296 104.427 97.726 104.385L69.4616 88.1232C69.2544 87.9991 69.2959 87.7094 69.2959 87.7094V70.2681L98.5135 86.6749Z" fill="#E3E3E3"/>
<path fill-rule="evenodd" clip-rule="evenodd" d="M104.792 89.2317L122.373 79.397V90.6308L104.792 100.742V89.2317Z" fill="#C4C4C4" fill-opacity="0.6"/>
<path fill-rule="evenodd" clip-rule="evenodd" d="M122.373 90.5541L112.569 84.9163L122.373 79.397V90.5541Z" fill="#797B84" fill-opacity="0.5"/>
<path opacity="0.4" d="M46.8694 102.709L69.3427 88.0176L98.1037 104.404L75.6304 118.614L46.8694 102.709Z" fill="url(#paint0_linear_376_100)"/>
<path d="M111.486 90.6939L117.403 87.313L122.982 90.3558L117.234 93.9058L111.486 90.6939Z" fill="url(#paint1_linear_376_100)"/>
<path d="M111.486 90.6938V97.4557L117.234 100.837V93.9057L111.486 90.6938Z" fill="url(#paint2_linear_376_100)"/>
<path d="M117.234 93.906L122.982 90.356V97.3207L117.234 100.837V93.906Z" fill="url(#paint3_linear_376_100)"/>
<g opacity="0.8">
<path d="M120.11 95.7845L125.88 92.4873L131.32 95.4548L125.715 98.9169L120.11 95.7845Z" fill="url(#paint4_linear_376_100)"/>
<path d="M120.11 95.7847V102.379L125.715 105.676V98.917L120.11 95.7847Z" fill="url(#paint5_linear_376_100)"/>
<path d="M125.715 98.9169L131.32 95.4548V102.247L125.715 105.676V98.9169Z" fill="url(#paint6_linear_376_100)"/>
</g>
<g opacity="0.6">
<path d="M128.302 100.527L134.072 97.23L139.513 100.197L133.908 103.66L128.302 100.527Z" fill="url(#paint7_linear_376_100)"/>
<path d="M128.302 100.527V107.122L133.908 110.419V103.66L128.302 100.527Z" fill="url(#paint8_linear_376_100)"/>
<path d="M133.908 103.66L139.513 100.198V106.99L133.908 110.419V103.66Z" fill="url(#paint9_linear_376_100)"/>
</g>
<g opacity="0.4">
<path d="M136.495 105.27L142.265 101.973L147.705 104.941L142.1 108.403L136.495 105.27Z" fill="url(#paint10_linear_376_100)"/>
<path d="M136.495 105.271V111.865L142.1 115.162V108.403L136.495 105.271Z" fill="url(#paint11_linear_376_100)"/>
<path d="M142.1 108.403L147.705 104.941V111.733L142.1 115.162V108.403Z" fill="url(#paint12_linear_376_100)"/>
</g>
<g opacity="0.2">
<path d="M144.687 110.013L150.457 106.716L155.898 109.684L150.292 113.146L144.687 110.013Z" fill="url(#paint13_linear_376_100)"/>
<path d="M144.687 110.013V116.608L150.292 119.905V113.146L144.687 110.013Z" fill="url(#paint14_linear_376_100)"/>
<path d="M150.292 113.146L155.898 109.684V116.476L150.292 119.905V113.146Z" fill="url(#paint15_linear_376_100)"/>
</g>
<g opacity="0.1">
<path d="M152.879 114.756L158.65 111.459L164.09 114.426L158.485 117.889L152.879 114.756Z" fill="url(#paint16_linear_376_100)"/>
<path d="M152.879 114.756V121.351L158.485 124.648V117.889L152.879 114.756Z" fill="url(#paint17_linear_376_100)"/>
<path d="M158.485 117.889L164.09 114.427V121.219L158.485 124.648V117.889Z" fill="url(#paint18_linear_376_100)"/>
</g>
</g>
<g opacity="0.4">
<path fill-rule="evenodd" clip-rule="evenodd" d="M22.6348 112.869V95.4074C22.6348 95.4074 51.3758 81.0488 51.6038 81.1729L80.0339 95.5522V112.994C80.0339 112.994 80.0961 113.283 79.8682 113.407L51.8317 129.525C51.6245 129.649 51.2722 129.649 51.065 129.525L22.7799 113.262C22.5727 113.138 22.6348 112.869 22.6348 112.869Z" fill="#EDEDED"/>
<path fill-rule="evenodd" clip-rule="evenodd" d="M22.7799 95.1178L50.8164 79.0006C51.0236 78.8764 51.3759 78.8764 51.5831 79.0006L79.8475 95.2626C80.0547 95.3867 80.0547 95.5936 79.8475 95.7178L51.8317 111.814C51.6245 111.938 51.2723 111.938 51.065 111.814L22.7799 95.5729C22.5727 95.4488 22.5727 95.2419 22.7799 95.1178Z" fill="#F3F3F3"/>
<path fill-rule="evenodd" clip-rule="evenodd" d="M51.7582 111.891L51.3484 129.62C51.224 129.62 51.0744 129.643 50.9708 129.602L22.7064 113.34C22.4992 113.215 22.5406 112.926 22.5406 112.926V95.4844L51.7582 111.891Z" fill="#E3E3E3"/>
<path fill-rule="evenodd" clip-rule="evenodd" d="M58.0371 114.448L75.618 104.613V115.847L58.0371 125.958V114.448Z" fill="#C4C4C4" fill-opacity="0.6"/>
<path fill-rule="evenodd" clip-rule="evenodd" d="M75.6181 115.77L65.8134 110.133L75.6181 104.613V115.77Z" fill="#797B84" fill-opacity="0.5"/>
<path opacity="0.4" d="M0.114014 127.926L22.5873 113.234L51.3483 129.62L28.875 143.83L0.114014 127.926Z" fill="url(#paint19_linear_376_100)"/>
<path d="M64.7311 115.91L70.6477 112.529L76.2263 115.572L70.4787 119.122L64.7311 115.91Z" fill="url(#paint20_linear_376_100)"/>
<path d="M64.7311 115.91V122.672L70.4787 126.053V119.122L64.7311 115.91Z" fill="url(#paint21_linear_376_100)"/>
<path d="M70.4788 119.122L76.2264 115.572V122.537L70.4788 126.053V119.122Z" fill="url(#paint22_linear_376_100)"/>
<g opacity="0.8">
<path d="M73.3547 121.001L79.1249 117.704L84.5653 120.671L78.96 124.133L73.3547 121.001Z" fill="url(#paint23_linear_376_100)"/>
<path d="M73.3547 121.001V127.595L78.96 130.892V124.133L73.3547 121.001Z" fill="url(#paint24_linear_376_100)"/>
<path d="M78.96 124.133L84.5653 120.671V127.463L78.96 130.893V124.133Z" fill="url(#paint25_linear_376_100)"/>
</g>
<g opacity="0.6">
<path d="M81.547 125.744L87.3172 122.446L92.7576 125.414L87.1523 128.876L81.547 125.744Z" fill="url(#paint26_linear_376_100)"/>
<path d="M81.547 125.744V132.338L87.1523 135.635V128.876L81.547 125.744Z" fill="url(#paint27_linear_376_100)"/>
<path d="M87.1523 128.876L92.7576 125.414V132.206L87.1523 135.635V128.876Z" fill="url(#paint28_linear_376_100)"/>
</g>
<g opacity="0.4">
<path d="M89.7394 130.486L95.5095 127.189L100.95 130.157L95.3447 133.619L89.7394 130.486Z" fill="url(#paint29_linear_376_100)"/>
<path d="M89.7394 130.487V137.081L95.3447 140.378V133.619L89.7394 130.487Z" fill="url(#paint30_linear_376_100)"/>
<path d="M95.3446 133.619L100.95 130.157V136.949L95.3446 140.378V133.619Z" fill="url(#paint31_linear_376_100)"/>
</g>
<g opacity="0.2">
<path d="M97.9316 135.229L103.702 131.932L109.142 134.9L103.537 138.362L97.9316 135.229Z" fill="url(#paint32_linear_376_100)"/>
<path d="M97.9316 135.229V141.824L103.537 145.121V138.362L97.9316 135.229Z" fill="url(#paint33_linear_376_100)"/>
<path d="M103.537 138.362L109.142 134.9V141.692L103.537 145.121V138.362Z" fill="url(#paint34_linear_376_100)"/>
</g>
<g opacity="0.1">
<path d="M106.124 139.973L111.894 136.675L117.335 139.643L111.729 143.105L106.124 139.973Z" fill="url(#paint35_linear_376_100)"/>
<path d="M106.124 139.973V146.567L111.729 149.864V143.105L106.124 139.973Z" fill="url(#paint36_linear_376_100)"/>
<path d="M111.729 143.105L117.335 139.643V146.435L111.729 149.864V143.105Z" fill="url(#paint37_linear_376_100)"/>
</g>
</g>
<g opacity="0.4">
<path fill-rule="evenodd" clip-rule="evenodd" d="M120.874 62.9619V45.4999C120.874 45.4999 149.615 31.1413 149.843 31.2654L178.273 45.6447V63.0861C178.273 63.0861 178.335 63.3757 178.107 63.4998L150.071 79.6171C149.864 79.7412 149.511 79.7412 149.304 79.6171L121.019 63.355C120.812 63.2309 120.874 62.9619 120.874 62.9619Z" fill="#EDEDED"/>
<path fill-rule="evenodd" clip-rule="evenodd" d="M121.019 45.2103L149.055 29.0931C149.263 28.969 149.615 28.969 149.822 29.0931L178.086 45.3551C178.294 45.4793 178.294 45.6862 178.086 45.8103L150.071 61.9068C149.864 62.031 149.511 62.031 149.304 61.9068L121.019 45.6655C120.812 45.5413 120.812 45.3344 121.019 45.2103Z" fill="#F3F3F3"/>
<path fill-rule="evenodd" clip-rule="evenodd" d="M149.997 61.9838L149.587 79.7127C149.463 79.7127 149.313 79.7354 149.21 79.6941L120.945 63.432C120.738 63.3079 120.78 63.0182 120.78 63.0182V45.5769L149.997 61.9838Z" fill="#E3E3E3"/>
<path fill-rule="evenodd" clip-rule="evenodd" d="M156.276 64.5405L173.857 54.7058V65.9396L156.276 76.0507V64.5405Z" fill="#C4C4C4" fill-opacity="0.6"/>
<path fill-rule="evenodd" clip-rule="evenodd" d="M173.857 65.8629L164.052 60.2251L173.857 54.7058V65.8629Z" fill="#797B84" fill-opacity="0.5"/>
<path opacity="0.4" d="M98.3529 78.0182L120.826 63.3264L149.587 79.713L127.114 93.923L98.3529 78.0182Z" fill="url(#paint38_linear_376_100)"/>
<path d="M162.97 66.0028L168.887 62.6218L174.465 65.6647L168.718 69.2147L162.97 66.0028Z" fill="url(#paint39_linear_376_100)"/>
<path d="M162.97 66.0027V72.7646L168.718 76.1455V69.2146L162.97 66.0027Z" fill="url(#paint40_linear_376_100)"/>
<path d="M168.718 69.2145L174.465 65.6646V72.6293L168.718 76.1455V69.2145Z" fill="url(#paint41_linear_376_100)"/>
<g opacity="0.8">
<path d="M171.594 71.0931L177.364 67.7959L182.804 70.7634L177.199 74.2255L171.594 71.0931Z" fill="url(#paint42_linear_376_100)"/>
<path d="M171.594 71.0933V77.6877L177.199 80.985V74.2256L171.594 71.0933Z" fill="url(#paint43_linear_376_100)"/>
<path d="M177.199 74.2255L182.804 70.7634V77.5557L177.199 80.9849V74.2255Z" fill="url(#paint44_linear_376_100)"/>
</g>
<g opacity="0.6">
<path d="M179.786 75.8361L185.556 72.5388L190.996 75.5063L185.391 78.9684L179.786 75.8361Z" fill="url(#paint45_linear_376_100)"/>
<path d="M179.786 75.8362V82.4307L185.391 85.7279V78.9686L179.786 75.8362Z" fill="url(#paint46_linear_376_100)"/>
<path d="M185.391 78.9684L190.996 75.5063V82.2986L185.391 85.7278V78.9684Z" fill="url(#paint47_linear_376_100)"/>
</g>
<g opacity="0.4">
<path d="M187.978 80.5792L193.748 77.282L199.189 80.2495L193.584 83.7116L187.978 80.5792Z" fill="url(#paint48_linear_376_100)"/>
<path d="M187.978 80.5793V87.1738L193.584 90.471V83.7117L187.978 80.5793Z" fill="url(#paint49_linear_376_100)"/>
<path d="M193.584 83.7116L199.189 80.2495V87.0418L193.584 90.4709V83.7116Z" fill="url(#paint50_linear_376_100)"/>
</g>
<g opacity="0.2">
<path d="M196.171 85.3221L201.941 82.0249L207.381 84.9924L201.776 88.4545L196.171 85.3221Z" fill="url(#paint51_linear_376_100)"/>
<path d="M196.171 85.3223V91.9167L201.776 95.214V88.4546L196.171 85.3223Z" fill="url(#paint52_linear_376_100)"/>
<path d="M201.776 88.4545L207.381 84.9924V91.7847L201.776 95.2139V88.4545Z" fill="url(#paint53_linear_376_100)"/>
</g>
<g opacity="0.1">
<path d="M204.363 90.0651L210.133 86.7678L215.574 89.7353L209.968 93.1974L204.363 90.0651Z" fill="url(#paint54_linear_376_100)"/>
<path d="M204.363 90.0649V96.6594L209.968 99.9566V93.1973L204.363 90.0649Z" fill="url(#paint55_linear_376_100)"/>
<path d="M209.968 93.1974L215.574 89.7354V96.5277L209.968 99.9568V93.1974Z" fill="url(#paint56_linear_376_100)"/>
</g>
</g>
<path fill-rule="evenodd" clip-rule="evenodd" d="M302.013 111.619V84.0595C302.013 84.0595 347.373 61.3984 347.733 61.5943L392.602 84.2881V111.815C392.602 111.815 392.7 112.272 392.341 112.468L348.093 137.904C347.765 138.1 347.21 138.1 346.882 137.904L302.242 112.239C301.915 112.043 302.013 111.619 302.013 111.619Z" fill="#EDEDED"/>
<path fill-rule="evenodd" clip-rule="evenodd" d="M302.242 83.6024L346.49 58.1657C346.817 57.9698 347.373 57.9698 347.7 58.1657L392.308 83.831C392.635 84.0269 392.635 84.3534 392.308 84.5494L348.093 109.953C347.765 110.149 347.21 110.149 346.882 109.953L302.242 84.3208C301.915 84.1249 301.915 83.7983 302.242 83.6024Z" fill="#F3F3F3"/>
<path fill-rule="evenodd" clip-rule="evenodd" d="M347.976 110.075L347.33 138.055C347.133 138.055 346.897 138.091 346.734 138.026L302.126 112.361C301.799 112.165 301.864 111.708 301.864 111.708V84.1812L347.976 110.075Z" fill="#E3E3E3"/>
<path fill-rule="evenodd" clip-rule="evenodd" d="M357.886 114.11L385.633 98.5881V116.318L357.886 132.275V114.11Z" fill="#C4C4C4" fill-opacity="0.6"/>
<path fill-rule="evenodd" clip-rule="evenodd" d="M385.633 116.197L370.159 107.299L385.633 98.5881V116.197Z" fill="#797B84" fill-opacity="0.5"/>
<path d="M365.142 116.434L374.213 111.098L383.284 116.167L374.213 121.503L365.142 116.434Z" fill="#06AFFF"/>
<path d="M365.142 116.433V127.105L374.213 132.441V121.502L365.142 116.433Z" fill="#2F80ED"/>
<path d="M374.213 121.503L383.284 116.167V126.892L374.213 132.441V121.503Z" fill="#3C8AFE"/>
<path d="M378.072 124.599L387.409 119.263L396.214 124.066L387.143 129.668L378.072 124.599Z" fill="#42E7AA"/>
<path d="M378.072 124.599V135.271L387.143 140.607V129.668L378.072 124.599Z" fill="#16A568"/>
<path d="M387.143 129.668L396.214 124.066V135.058L387.143 140.607V129.668Z" fill="#17CE8A"/>
<path d="M391.682 132.085L401.019 126.749L409.824 131.551L400.753 137.154L391.682 132.085Z" fill="#FFEE50"/>
<path d="M391.682 132.084V142.756L400.753 148.092V137.154L391.682 132.084Z" fill="#CCBA11"/>
<path d="M400.753 137.154L409.824 131.551V142.543L400.753 148.092V137.154Z" fill="#FFD215"/>
<path d="M404.611 139.57L413.949 134.234L422.753 139.037L413.682 144.639L404.611 139.57Z" fill="#F67C7C"/>
<path d="M404.611 139.57V150.242L413.682 155.578V144.639L404.611 139.57Z" fill="#DE2424"/>
<path d="M413.682 144.639L422.753 139.037V150.029L413.682 155.578V144.639Z" fill="#F32626"/>
<path opacity="0.4" d="M266.47 135.381L301.938 112.194L347.33 138.055L311.862 160.482L266.47 135.381Z" fill="url(#paint57_linear_376_100)"/>
<g opacity="0.1">
<path d="M469.939 176.865L479.045 171.662L487.632 176.345L478.785 181.809L469.939 176.865Z" fill="url(#paint58_linear_376_100)"/>
<path d="M469.939 176.865V187.273L478.785 192.477V181.809L469.939 176.865Z" fill="url(#paint59_linear_376_100)"/>
<path d="M478.785 181.809L487.632 176.345V187.065L478.785 192.477V181.809Z" fill="url(#paint60_linear_376_100)"/>
</g>
<g opacity="0.8">
<path d="M418.221 146.924L427.328 141.72L435.914 146.403L427.067 151.867L418.221 146.924Z" fill="url(#paint61_linear_376_100)"/>
<path d="M418.221 146.924V157.331L427.067 162.535V151.867L418.221 146.924Z" fill="url(#paint62_linear_376_100)"/>
<path d="M427.067 151.867L435.914 146.403V157.123L427.067 162.535V151.867Z" fill="url(#paint63_linear_376_100)"/>
</g>
<g opacity="0.6">
<path d="M431.15 154.409L440.257 149.205L448.843 153.889L439.997 159.353L431.15 154.409Z" fill="url(#paint64_linear_376_100)"/>
<path d="M431.15 154.409V164.817L439.997 170.021V159.353L431.15 154.409Z" fill="url(#paint65_linear_376_100)"/>
<path d="M439.997 159.353L448.843 153.889V164.609L439.997 170.021V159.353Z" fill="url(#paint66_linear_376_100)"/>
</g>
<g opacity="0.4">
<path d="M444.08 161.894L453.186 156.691L461.773 161.374L452.926 166.838L444.08 161.894Z" fill="url(#paint67_linear_376_100)"/>
<path d="M444.08 161.895V172.302L452.926 177.506V166.838L444.08 161.895Z" fill="url(#paint68_linear_376_100)"/>
<path d="M452.926 166.838L461.773 161.374V172.094L452.926 177.506V166.838Z" fill="url(#paint69_linear_376_100)"/>
</g>
<g opacity="0.2">
<path d="M457.009 169.38L466.116 164.176L474.702 168.86L465.856 174.324L457.009 169.38Z" fill="url(#paint70_linear_376_100)"/>
<path d="M457.009 169.38V179.788L465.856 184.992V174.324L457.009 169.38Z" fill="url(#paint71_linear_376_100)"/>
<path d="M465.856 174.324L474.702 168.86V179.58L465.856 184.992V174.324Z" fill="url(#paint72_linear_376_100)"/>
</g>
<path fill-rule="evenodd" clip-rule="evenodd" d="M158.526 156.864V111.29C158.526 111.29 233.538 73.8148 234.133 74.1388L308.333 111.668V157.188C308.333 157.188 308.496 157.944 307.901 158.268L234.728 200.333C234.187 200.657 233.267 200.657 232.727 200.333L158.904 157.89C158.364 157.566 158.526 156.864 158.526 156.864Z" fill="#333333"/>
<path fill-rule="evenodd" clip-rule="evenodd" d="M158.904 110.534L232.078 68.4691C232.618 68.1451 233.538 68.1451 234.079 68.4691L307.847 110.912C308.387 111.236 308.387 111.776 307.847 112.1L234.728 154.11C234.187 154.434 233.267 154.434 232.726 154.11L158.904 111.722C158.364 111.398 158.364 110.858 158.904 110.534Z" fill="#484848"/>
<path fill-rule="evenodd" clip-rule="evenodd" d="M234.536 154.312L233.466 200.583C233.141 200.583 232.751 200.642 232.48 200.534L158.712 158.092C158.172 157.768 158.28 157.012 158.28 157.012V111.491L234.536 154.312Z" fill="#1E1E1E"/>
<path fill-rule="evenodd" clip-rule="evenodd" d="M250.923 160.983L296.808 135.316V164.635L250.923 191.024V160.983Z" fill="#C4C4C4" fill-opacity="0.6"/>
<path fill-rule="evenodd" clip-rule="evenodd" d="M296.808 164.435L271.218 149.721L296.808 135.316V164.435Z" fill="#797B84" fill-opacity="0.5"/>
<path d="M263.277 163.525L278.719 154.701L293.278 162.643L278.278 171.908L263.277 163.525Z" fill="#42E7AA"/>
<path d="M263.277 163.525V181.173L278.278 189.997V171.908L263.277 163.525Z" fill="#16A568"/>
<path d="M278.278 171.908L293.278 162.643V180.821L278.278 189.998V171.908Z" fill="#17CE8A"/>
<path d="M284.455 176.762L299.897 167.938L314.456 175.879L299.455 185.145L284.455 176.762Z" fill="#FFEE50"/>
<path d="M284.455 176.762V194.41L299.455 203.234V185.145L284.455 176.762Z" fill="#CCBA11"/>
<path d="M299.455 185.145L314.456 175.879V194.057L299.455 203.234V185.145Z" fill="#FFD215"/>
<path d="M306.515 189.115L321.957 180.291L336.516 188.233L321.516 197.498L306.515 189.115Z" fill="#F67C7C"/>
<path d="M306.515 189.115V206.763L321.516 215.587V197.498L306.515 189.115Z" fill="#DE2424"/>
<path d="M321.516 197.498L336.516 188.233V206.41L321.516 215.587V197.498Z" fill="#F32626"/>
<path d="M328.575 202.351L343.576 193.527L358.576 201.91L343.576 210.734L328.575 202.351Z" fill="#06AFFF"/>
<path d="M328.575 202.351V219.999L343.576 228.823V210.734L328.575 202.351Z" fill="#2F80ED"/>
<path d="M343.576 210.734L358.576 201.91V219.646L343.576 228.823V210.734Z" fill="#3C8AFE"/>
<g opacity="0.8">
<path d="M350.852 216.299L365.851 207.728L379.993 215.442L365.422 224.441L350.852 216.299Z" fill="url(#paint73_linear_376_100)"/>
<path d="M350.852 216.299V233.441L365.422 242.012V224.441L350.852 216.299Z" fill="url(#paint74_linear_376_100)"/>
<path d="M365.422 224.441L379.993 215.442V233.098L365.422 242.012V224.441Z" fill="url(#paint75_linear_376_100)"/>
</g>
<g opacity="0.6">
<path d="M372.147 228.628L387.146 220.057L401.289 227.771L386.718 236.771L372.147 228.628Z" fill="url(#paint76_linear_376_100)"/>
<path d="M372.147 228.628V245.77L386.718 254.341V236.77L372.147 228.628Z" fill="url(#paint77_linear_376_100)"/>
<path d="M386.718 236.771L401.289 227.771V245.427L386.718 254.341V236.771Z" fill="url(#paint78_linear_376_100)"/>
</g>
<g opacity="0.4">
<path d="M393.443 240.957L408.442 232.386L422.584 240.1L408.013 249.1L393.443 240.957Z" fill="url(#paint79_linear_376_100)"/>
<path d="M393.443 240.957V258.099L408.013 266.67V249.099L393.443 240.957Z" fill="url(#paint80_linear_376_100)"/>
<path d="M408.013 249.1L422.584 240.1V257.756L408.013 266.67V249.1Z" fill="url(#paint81_linear_376_100)"/>
</g>
<g opacity="0.2">
<path d="M414.738 253.286L429.737 244.715L443.88 252.429L429.309 261.428L414.738 253.286Z" fill="url(#paint82_linear_376_100)"/>
<path d="M414.738 253.286V270.428L429.309 278.999V261.428L414.738 253.286Z" fill="url(#paint83_linear_376_100)"/>
<path d="M429.309 261.428L443.879 252.429V270.085L429.309 278.999V261.428Z" fill="url(#paint84_linear_376_100)"/>
</g>
<g opacity="0.1">
<path d="M436.034 265.615L451.033 257.044L465.175 264.758L450.605 273.757L436.034 265.615Z" fill="url(#paint85_linear_376_100)"/>
<path d="M436.034 265.615V282.757L450.605 291.328V273.757L436.034 265.615Z" fill="url(#paint86_linear_376_100)"/>
<path d="M450.604 273.757L465.175 264.758V282.414L450.604 291.328V273.757Z" fill="url(#paint87_linear_376_100)"/>
</g>
<path opacity="0.4" d="M99.7482 196.16L158.402 157.815L233.466 200.583L174.812 237.67L99.7482 196.16Z" fill="url(#paint88_linear_376_100)"/>
<path fill-rule="evenodd" clip-rule="evenodd" d="M90.3785 221.179V193.62C90.3785 193.62 135.739 170.959 136.098 171.155L180.968 193.848V221.375C180.968 221.375 181.066 221.832 180.706 222.028L136.458 247.465C136.131 247.661 135.575 247.661 135.248 247.465L90.6075 221.799C90.2804 221.603 90.3785 221.179 90.3785 221.179Z" fill="#EDEDED"/>
<path fill-rule="evenodd" clip-rule="evenodd" d="M90.6075 193.163L134.856 167.726C135.183 167.53 135.739 167.53 136.066 167.726L180.673 193.391C181 193.587 181 193.914 180.673 194.11L136.458 219.514C136.131 219.71 135.575 219.71 135.248 219.514L90.6075 193.881C90.2804 193.685 90.2804 193.359 90.6075 193.163Z" fill="#F3F3F3"/>
<path fill-rule="evenodd" clip-rule="evenodd" d="M136.342 219.635L135.695 247.616C135.499 247.616 135.263 247.652 135.099 247.586L90.4912 221.921C90.1642 221.725 90.2296 221.268 90.2296 221.268V193.741L136.342 219.635Z" fill="#E3E3E3"/>
<path fill-rule="evenodd" clip-rule="evenodd" d="M146.252 223.67L173.998 208.148V225.878L146.252 241.836V223.67Z" fill="#C4C4C4" fill-opacity="0.6"/>
<path fill-rule="evenodd" clip-rule="evenodd" d="M173.998 225.757L158.524 216.859L173.998 208.148V225.757Z" fill="#797B84" fill-opacity="0.5"/>
<path d="M153.507 225.994L162.845 220.658L171.65 225.46L162.579 231.063L153.507 225.994Z" fill="#F67C7C"/>
<path d="M153.507 225.994V236.666L162.578 242.001V231.063L153.507 225.994Z" fill="#DE2424"/>
<path d="M162.578 231.063L171.65 225.46V236.452L162.578 242.002V231.063Z" fill="#F32626"/>
<path d="M167.117 233.479L176.189 228.144L185.26 233.213L176.189 238.549L167.117 233.479Z" fill="#06AFFF"/>
<path d="M167.117 233.479V244.151L176.189 249.487V238.548L167.117 233.479Z" fill="#2F80ED"/>
<path d="M176.188 238.549L185.26 233.213V243.938L176.188 249.487V238.549Z" fill="#3C8AFE"/>
<path d="M180.047 240.965L189.385 235.629L198.189 240.431L189.118 246.034L180.047 240.965Z" fill="#42E7AA"/>
<path d="M180.047 240.965V251.636L189.118 256.972V246.034L180.047 240.965Z" fill="#16A568"/>
<path d="M189.118 246.034L198.189 240.431V251.423L189.118 256.973V246.034Z" fill="#17CE8A"/>
<path d="M192.976 248.45L202.314 243.114L211.118 247.916L202.047 253.519L192.976 248.45Z" fill="#FFEE50"/>
<path d="M192.976 248.45V259.122L202.047 264.457V253.519L192.976 248.45Z" fill="#CCBA11"/>
<path d="M202.047 253.519L211.118 247.916V258.908L202.047 264.458V253.519Z" fill="#FFD215"/>
<path opacity="0.4" d="M54.8354 244.941L90.3035 221.754L135.695 247.616L100.227 270.042L54.8354 244.941Z" fill="url(#paint89_linear_376_100)"/>
<g opacity="0.8">
<path d="M206.586 256.484L215.693 251.28L224.279 255.963L215.433 261.427L206.586 256.484Z" fill="url(#paint90_linear_376_100)"/>
<path d="M206.586 256.484V266.891L215.433 272.095V261.427L206.586 256.484Z" fill="url(#paint91_linear_376_100)"/>
<path d="M215.433 261.428L224.279 255.964V266.683L215.433 272.095V261.428Z" fill="url(#paint92_linear_376_100)"/>
</g>
<g opacity="0.6">
<path d="M219.516 263.969L228.623 258.766L237.209 263.449L228.362 268.913L219.516 263.969Z" fill="url(#paint93_linear_376_100)"/>
<path d="M219.516 263.969V274.377L228.362 279.581V268.913L219.516 263.969Z" fill="url(#paint94_linear_376_100)"/>
<path d="M228.362 268.913L237.209 263.449V274.169L228.362 279.581V268.913Z" fill="url(#paint95_linear_376_100)"/>
</g>
<g opacity="0.4">
<path d="M232.445 271.455L241.552 266.251L250.138 270.934L241.292 276.398L232.445 271.455Z" fill="url(#paint96_linear_376_100)"/>
<path d="M232.445 271.455V281.862L241.292 287.066V276.398L232.445 271.455Z" fill="url(#paint97_linear_376_100)"/>
<path d="M241.292 276.399L250.138 270.935V281.654L241.292 287.066V276.399Z" fill="url(#paint98_linear_376_100)"/>
</g>
<g opacity="0.2">
<path d="M245.375 278.94L254.481 273.737L263.068 278.42L254.221 283.884L245.375 278.94Z" fill="url(#paint99_linear_376_100)"/>
<path d="M245.375 278.94V289.348L254.221 294.552V283.884L245.375 278.94Z" fill="url(#paint100_linear_376_100)"/>
<path d="M254.221 283.884L263.068 278.42V289.14L254.221 294.552V283.884Z" fill="url(#paint101_linear_376_100)"/>
</g>
<g opacity="0.1">
<path d="M258.304 286.426L267.411 281.222L275.997 285.906L267.151 291.37L258.304 286.426Z" fill="url(#paint102_linear_376_100)"/>
<path d="M258.304 286.426V296.834L267.151 302.037V291.37L258.304 286.426Z" fill="url(#paint103_linear_376_100)"/>
<path d="M267.151 291.37L275.997 285.906V296.626L267.151 302.038V291.37Z" fill="url(#paint104_linear_376_100)"/>
</g>
<rect x="232.114" y="1" width="34" height="34" rx="10" fill="white" stroke="#EBEFF6" stroke-width="1.5"/>
<path d="M250.558 8.55566H247.67C243.251 8.55566 239.67 12.1374 239.67 16.5557V19.4446C239.67 23.8628 243.251 27.4446 247.67 27.4446H250.558C254.977 27.4446 258.558 23.8628 258.558 19.4446V16.5557C258.558 12.1374 254.977 8.55566 250.558 8.55566Z" fill="#3333FF"/>
<path d="M254.947 20.3005L252.588 16.7359L254.456 15.8068C254.683 15.6931 254.834 15.4655 254.834 15.2001C254.834 14.9346 254.683 14.7071 254.456 14.5933L249.72 12.2043C249.512 12.0906 249.267 12.0716 249.04 12.1285C248.984 12.1474 248.927 12.1664 248.871 12.1854L248.833 12.2043L244.059 14.5933L243.813 14.7071C243.643 14.8019 243.511 14.9536 243.455 15.1432C243.398 15.3328 243.436 15.5414 243.549 15.6931L245.908 19.2576L244.04 20.1867C243.813 20.3005 243.662 20.528 243.662 20.7934C243.662 21.0589 243.813 21.2864 244.04 21.4002L248.776 23.7892C248.908 23.865 249.059 23.903 249.21 23.903C249.286 23.903 249.38 23.884 249.456 23.865C249.512 23.8461 249.569 23.8271 249.625 23.8082L254.645 21.2864C254.815 21.1916 254.947 21.0399 255.004 20.8503C255.079 20.6607 255.06 20.4711 254.947 20.3005ZM249.38 23.1256L247.002 19.542L249.248 18.4044L254.003 20.7934L251.72 21.95L249.38 23.1256ZM246.248 14.3089L249.135 12.8679L251.513 16.4515L249.267 17.5891L244.511 15.2001L246.248 14.3089ZM253.758 19.8454L250.078 17.9873L251.928 17.0582L253.758 19.8454ZM252.173 16.1291L250.324 13.3419L254.003 15.2001L252.173 16.1291ZM244.738 16.1481L248.418 18.0062L246.568 18.9353L244.738 16.1481ZM246.342 19.8833L248.191 22.6706L244.511 20.8124L246.342 19.8833Z" fill="white"/>
<rect x="343.114" y="315" width="39" height="39" rx="10" fill="white" stroke="#EBEFF6" stroke-width="1.5"/>
<path fill-rule="evenodd" clip-rule="evenodd" d="M350.949 335.685L363.752 322.882V329.148C363.752 330.882 363.064 332.545 361.838 333.77C360.612 334.996 358.949 335.685 357.215 335.685H350.949Z" fill="#000008"/>
<path fill-rule="evenodd" clip-rule="evenodd" d="M374.24 333.37L361.437 346.173V339.907C361.437 338.173 362.125 336.51 363.351 335.284C364.577 334.059 366.24 333.37 367.974 333.37H374.24Z" fill="#000008"/>
<rect x="258.114" y="215" width="26" height="26" rx="3" fill="white" stroke="#EBEFF6" stroke-width="1.5"/>
<path d="M263.892 222.101C263.892 221.37 264.484 220.778 265.215 220.778H270.392C271.123 220.778 271.716 221.37 271.716 222.101V223.125C271.716 223.491 271.42 223.787 271.054 223.787H264.553C264.188 223.787 263.892 223.491 263.892 223.125V222.101Z" fill="#262626"/>
<path d="M263.892 226.254C263.892 225.889 264.188 225.593 264.553 225.593H277.013C277.744 225.593 278.336 226.185 278.336 226.916V230.348C278.336 230.713 278.04 231.009 277.674 231.009H265.215C264.484 231.009 263.892 230.417 263.892 229.686V226.254Z" fill="#262626"/>
<path d="M270.512 233.477C270.512 233.111 270.808 232.815 271.174 232.815H277.674C278.04 232.815 278.336 233.111 278.336 233.477V233.899C278.336 234.63 277.744 235.222 277.013 235.222H271.836C271.105 235.222 270.512 234.63 270.512 233.899V233.477Z" fill="#262626"/>
<rect x="427.114" y="48" width="38" height="36.1613" rx="10" fill="white" stroke="#EBEFF6" stroke-width="1.5"/>
<path d="M448.212 61.7346C446.505 61.7346 444.822 62.4322 443.537 63.8037V57.0403H440.994V68.4278C440.994 72.1243 444.143 75.1209 448.028 75.1209C451.912 75.1209 455.061 72.1243 455.061 68.4278C455.061 64.7313 452.097 61.7346 448.212 61.7346ZM448.028 72.5429C445.639 72.5429 443.703 70.7005 443.703 68.4277C443.703 66.155 445.639 64.3125 448.028 64.3125C450.416 64.3125 452.352 66.155 452.352 68.4277C452.352 70.7005 450.416 72.5429 448.028 72.5429Z" fill="#262626"/>
<path d="M439.145 71.8107C438.184 71.8107 437.406 72.5517 437.406 73.4658C437.406 74.3799 438.184 75.1209 439.145 75.1209C440.106 75.1209 440.884 74.3799 440.884 73.4658C440.884 72.5517 440.106 71.8107 439.145 71.8107Z" fill="#0000FF"/>
<rect x="87.114" y="287" width="31" height="31" rx="5" fill="white" stroke="#EBEFF6" stroke-width="1.5"/>
<path d="M102.614 293.981C101.495 293.981 100.388 294.202 99.3542 294.63C98.3207 295.058 97.3816 295.685 96.5906 296.476C94.9931 298.074 94.0956 300.241 94.0956 302.5V311.018H102.614C104.873 311.018 107.04 310.121 108.638 308.523C110.235 306.926 111.133 304.759 111.133 302.5C111.133 300.241 110.235 298.074 108.638 296.476C107.04 294.879 104.873 293.981 102.614 293.981ZM102.614 299.518C103.006 299.518 103.393 299.596 103.755 299.745C104.117 299.895 104.445 300.115 104.722 300.392C104.999 300.669 105.219 300.997 105.369 301.359C105.518 301.721 105.596 302.108 105.596 302.5C105.596 302.891 105.518 303.279 105.369 303.641C105.219 304.003 104.999 304.331 104.722 304.608C104.445 304.885 104.117 305.105 103.755 305.254C103.393 305.404 103.006 305.481 102.614 305.481H99.6326V302.5C99.6326 301.709 99.9467 300.951 100.506 300.392C101.065 299.833 101.823 299.518 102.614 299.518Z" fill="url(#paint105_linear_376_100)"/>
<path d="M111.133 302.5C111.133 304.759 110.235 306.926 108.638 308.524C107.04 310.121 104.873 311.019 102.614 311.019H94.0956C94.0956 309.55 94.6789 308.142 95.7173 307.103C96.7557 306.065 98.1641 305.481 99.6326 305.481H102.614C103.405 305.481 104.163 305.167 104.722 304.608C105.281 304.049 105.596 303.291 105.596 302.5H111.133Z" fill="url(#paint106_linear_376_100)"/>
<path d="M111.133 302.5C111.133 304.759 110.235 306.926 108.638 308.524C107.04 310.121 104.873 311.019 102.614 311.019H94.0956C94.0956 309.55 94.6789 308.142 95.7173 307.103C96.7557 306.065 98.1641 305.481 99.6326 305.481H102.614C103.405 305.481 104.163 305.167 104.722 304.608C105.281 304.049 105.596 303.291 105.596 302.5H111.133Z" fill="url(#paint107_radial_376_100)" fill-opacity="0.56"/>
<path d="M111.133 302.5C111.133 304.759 110.235 306.926 108.638 308.524C107.04 310.121 104.873 311.019 102.614 311.019H94.0956C94.0956 309.55 94.6789 308.142 95.7173 307.103C96.7557 306.065 98.1641 305.481 99.6326 305.481H102.614C103.405 305.481 104.163 305.167 104.722 304.608C105.281 304.049 105.596 303.291 105.596 302.5H111.133Z" fill="url(#paint108_radial_376_100)" fill-opacity="0.15"/>
<path d="M102.614 293.981C101.495 293.981 100.388 294.202 99.3542 294.63C98.3207 295.058 97.3816 295.685 96.5906 296.476C94.9931 298.074 94.0956 300.241 94.0956 302.5V311.018C95.5611 311.018 96.9669 310.437 98.0048 309.403C99.0428 308.368 99.6281 306.964 99.6326 305.498L99.6497 305.481H99.6326V302.5C99.6308 301.907 99.8059 301.327 100.136 300.834C100.465 300.341 100.934 299.957 101.483 299.732C102.032 299.507 102.635 299.451 103.216 299.571C103.797 299.691 104.329 299.981 104.744 300.404L108.662 296.503C107.871 295.703 106.929 295.068 105.891 294.635C104.853 294.203 103.739 293.98 102.614 293.981Z" fill="url(#paint109_linear_376_100)"/>
<path d="M102.614 293.981C101.495 293.981 100.388 294.202 99.3542 294.63C98.3207 295.058 97.3816 295.685 96.5906 296.476C94.9931 298.074 94.0956 300.241 94.0956 302.5V311.018C95.5611 311.018 96.9669 310.437 98.0048 309.403C99.0428 308.368 99.6281 306.964 99.6326 305.498L99.6497 305.481H99.6326V302.5C99.6308 301.907 99.8059 301.327 100.136 300.834C100.465 300.341 100.934 299.957 101.483 299.732C102.032 299.507 102.635 299.451 103.216 299.571C103.797 299.691 104.329 299.981 104.744 300.404L108.662 296.503C107.871 295.703 106.929 295.068 105.891 294.635C104.853 294.203 103.739 293.98 102.614 293.981Z" fill="url(#paint110_radial_376_100)"/>
<path d="M102.614 293.981C101.495 293.981 100.388 294.202 99.3542 294.63C98.3207 295.058 97.3816 295.685 96.5906 296.476C94.9931 298.074 94.0956 300.241 94.0956 302.5V311.018H102.614C104.873 311.018 107.04 310.121 108.638 308.523C110.235 306.926 111.133 304.759 111.133 302.5C111.133 300.241 110.235 298.074 108.638 296.476C107.04 294.879 104.873 293.981 102.614 293.981ZM102.614 299.518C103.006 299.518 103.393 299.596 103.755 299.745C104.117 299.895 104.445 300.115 104.722 300.392C104.999 300.669 105.219 300.997 105.369 301.359C105.518 301.721 105.596 302.108 105.596 302.5C105.596 302.891 105.518 303.279 105.369 303.641C105.219 304.003 104.999 304.331 104.722 304.608C104.445 304.885 104.117 305.105 103.755 305.254C103.393 305.404 103.006 305.481 102.614 305.481H99.6326V302.5C99.6326 301.709 99.9467 300.951 100.506 300.392C101.065 299.833 101.823 299.518 102.614 299.518Z" fill="url(#paint111_linear_376_100)"/>
<path d="M111.133 302.5C111.133 304.759 110.235 306.926 108.638 308.524C107.04 310.121 104.873 311.019 102.614 311.019H94.0956C94.0956 309.55 94.6789 308.142 95.7173 307.103C96.7557 306.065 98.1641 305.481 99.6326 305.481H102.614C103.405 305.481 104.163 305.167 104.722 304.608C105.281 304.049 105.596 303.291 105.596 302.5H111.133Z" fill="url(#paint112_linear_376_100)"/>
<path d="M111.133 302.5C111.133 304.759 110.235 306.926 108.638 308.524C107.04 310.121 104.873 311.019 102.614 311.019H94.0956C94.0956 309.55 94.6789 308.142 95.7173 307.103C96.7557 306.065 98.1641 305.481 99.6326 305.481H102.614C103.405 305.481 104.163 305.167 104.722 304.608C105.281 304.049 105.596 303.291 105.596 302.5H111.133Z" fill="url(#paint113_radial_376_100)" fill-opacity="0.56"/>
<path d="M111.133 302.5C111.133 304.759 110.235 306.926 108.638 308.524C107.04 310.121 104.873 311.019 102.614 311.019H94.0956C94.0956 309.55 94.6789 308.142 95.7173 307.103C96.7557 306.065 98.1641 305.481 99.6326 305.481H102.614C103.405 305.481 104.163 305.167 104.722 304.608C105.281 304.049 105.596 303.291 105.596 302.5H111.133Z" fill="url(#paint114_radial_376_100)" fill-opacity="0.15"/>
<path d="M102.614 293.981C101.495 293.981 100.388 294.202 99.3542 294.63C98.3207 295.058 97.3816 295.685 96.5906 296.476C94.9931 298.074 94.0956 300.241 94.0956 302.5V311.018C95.5611 311.018 96.9669 310.437 98.0048 309.403C99.0428 308.368 99.6281 306.964 99.6326 305.498L99.6497 305.481H99.6326V302.5C99.6308 301.907 99.8059 301.327 100.136 300.834C100.465 300.341 100.934 299.957 101.483 299.732C102.032 299.507 102.635 299.451 103.216 299.571C103.797 299.691 104.329 299.981 104.744 300.404L108.662 296.503C107.871 295.703 106.929 295.068 105.891 294.635C104.853 294.203 103.739 293.98 102.614 293.981Z" fill="url(#paint115_linear_376_100)"/>
<path d="M102.614 293.981C101.495 293.981 100.388 294.202 99.3542 294.63C98.3207 295.058 97.3816 295.685 96.5906 296.476C94.9931 298.074 94.0956 300.241 94.0956 302.5V311.018C95.5611 311.018 96.9669 310.437 98.0048 309.403C99.0428 308.368 99.6281 306.964 99.6326 305.498L99.6497 305.481H99.6326V302.5C99.6308 301.907 99.8059 301.327 100.136 300.834C100.465 300.341 100.934 299.957 101.483 299.732C102.032 299.507 102.635 299.451 103.216 299.571C103.797 299.691 104.329 299.981 104.744 300.404L108.662 296.503C107.871 295.703 106.929 295.068 105.891 294.635C104.853 294.203 103.739 293.98 102.614 293.981Z" fill="url(#paint116_radial_376_100)"/>
<defs>
<linearGradient id="paint0_linear_376_100" x1="78.4383" y1="108.095" x2="85.6681" y2="96.4576" gradientUnits="userSpaceOnUse">
<stop offset="0.132597" stop-color="#C4C4C4" stop-opacity="0"/>
<stop offset="1" stop-color="#484848"/>
</linearGradient>
<linearGradient id="paint1_linear_376_100" x1="117.234" y1="87.313" x2="117.234" y2="93.9068" gradientUnits="userSpaceOnUse">
<stop stop-color="#E8E8E8"/>
<stop offset="1" stop-color="#727272"/>
</linearGradient>
<linearGradient id="paint2_linear_376_100" x1="114.36" y1="90.6938" x2="114.36" y2="100.838" gradientUnits="userSpaceOnUse">
<stop stop-color="#E8E8E8"/>
<stop offset="1" stop-color="#727272"/>
</linearGradient>
<linearGradient id="paint3_linear_376_100" x1="120.108" y1="90.356" x2="120.108" y2="100.838" gradientUnits="userSpaceOnUse">
<stop stop-color="#E8E8E8"/>
<stop offset="1" stop-color="#727272"/>
</linearGradient>
<linearGradient id="paint4_linear_376_100" x1="125.715" y1="92.4873" x2="125.715" y2="98.9179" gradientUnits="userSpaceOnUse">
<stop stop-color="#E8E8E8"/>
<stop offset="1" stop-color="#727272"/>
</linearGradient>
<linearGradient id="paint5_linear_376_100" x1="122.913" y1="95.7847" x2="122.913" y2="105.678" gradientUnits="userSpaceOnUse">
<stop stop-color="#E8E8E8"/>
<stop offset="1" stop-color="#727272"/>
</linearGradient>
<linearGradient id="paint6_linear_376_100" x1="128.518" y1="95.4548" x2="128.518" y2="105.678" gradientUnits="userSpaceOnUse">
<stop stop-color="#E8E8E8"/>
<stop offset="1" stop-color="#727272"/>
</linearGradient>
<linearGradient id="paint7_linear_376_100" x1="133.908" y1="97.23" x2="133.908" y2="103.661" gradientUnits="userSpaceOnUse">
<stop stop-color="#E8E8E8"/>
<stop offset="1" stop-color="#727272"/>
</linearGradient>
<linearGradient id="paint8_linear_376_100" x1="131.105" y1="100.527" x2="131.105" y2="110.421" gradientUnits="userSpaceOnUse">
<stop stop-color="#E8E8E8"/>
<stop offset="1" stop-color="#727272"/>
</linearGradient>
<linearGradient id="paint9_linear_376_100" x1="136.71" y1="100.198" x2="136.71" y2="110.42" gradientUnits="userSpaceOnUse">
<stop stop-color="#E8E8E8"/>
<stop offset="1" stop-color="#727272"/>
</linearGradient>
<linearGradient id="paint10_linear_376_100" x1="142.1" y1="101.973" x2="142.1" y2="108.404" gradientUnits="userSpaceOnUse">
<stop stop-color="#E8E8E8"/>
<stop offset="1" stop-color="#727272"/>
</linearGradient>
<linearGradient id="paint11_linear_376_100" x1="139.298" y1="105.271" x2="139.298" y2="115.164" gradientUnits="userSpaceOnUse">
<stop stop-color="#E8E8E8"/>
<stop offset="1" stop-color="#727272"/>
</linearGradient>
<linearGradient id="paint12_linear_376_100" x1="144.903" y1="104.941" x2="144.903" y2="115.164" gradientUnits="userSpaceOnUse">
<stop stop-color="#E8E8E8"/>
<stop offset="1" stop-color="#727272"/>
</linearGradient>
<linearGradient id="paint13_linear_376_100" x1="150.293" y1="106.716" x2="150.293" y2="113.147" gradientUnits="userSpaceOnUse">
<stop stop-color="#E8E8E8"/>
<stop offset="1" stop-color="#727272"/>
</linearGradient>
<linearGradient id="paint14_linear_376_100" x1="147.49" y1="110.013" x2="147.49" y2="119.907" gradientUnits="userSpaceOnUse">
<stop stop-color="#E8E8E8"/>
<stop offset="1" stop-color="#727272"/>
</linearGradient>
<linearGradient id="paint15_linear_376_100" x1="153.095" y1="109.684" x2="153.095" y2="119.907" gradientUnits="userSpaceOnUse">
<stop stop-color="#E8E8E8"/>
<stop offset="1" stop-color="#727272"/>
</linearGradient>
<linearGradient id="paint16_linear_376_100" x1="158.485" y1="111.459" x2="158.485" y2="117.89" gradientUnits="userSpaceOnUse">
<stop stop-color="#E8E8E8"/>
<stop offset="1" stop-color="#727272"/>
</linearGradient>
<linearGradient id="paint17_linear_376_100" x1="155.682" y1="114.756" x2="155.682" y2="124.65" gradientUnits="userSpaceOnUse">
<stop stop-color="#E8E8E8"/>
<stop offset="1" stop-color="#727272"/>
</linearGradient>
<linearGradient id="paint18_linear_376_100" x1="161.287" y1="114.427" x2="161.287" y2="124.649" gradientUnits="userSpaceOnUse">
<stop stop-color="#E8E8E8"/>
<stop offset="1" stop-color="#727272"/>
</linearGradient>
<linearGradient id="paint19_linear_376_100" x1="31.6829" y1="133.311" x2="38.9127" y2="121.674" gradientUnits="userSpaceOnUse">
<stop offset="0.132597" stop-color="#C4C4C4" stop-opacity="0"/>
<stop offset="1" stop-color="#484848"/>
</linearGradient>
<linearGradient id="paint20_linear_376_100" x1="70.4789" y1="112.529" x2="70.4789" y2="119.123" gradientUnits="userSpaceOnUse">
<stop stop-color="#E8E8E8"/>
<stop offset="1" stop-color="#727272"/>
</linearGradient>
<linearGradient id="paint21_linear_376_100" x1="67.605" y1="115.91" x2="67.605" y2="126.055" gradientUnits="userSpaceOnUse">
<stop stop-color="#E8E8E8"/>
<stop offset="1" stop-color="#727272"/>
</linearGradient>
<linearGradient id="paint22_linear_376_100" x1="73.3527" y1="115.572" x2="73.3527" y2="126.055" gradientUnits="userSpaceOnUse">
<stop stop-color="#E8E8E8"/>
<stop offset="1" stop-color="#727272"/>
</linearGradient>
<linearGradient id="paint23_linear_376_100" x1="78.9603" y1="117.704" x2="78.9603" y2="124.134" gradientUnits="userSpaceOnUse">
<stop stop-color="#E8E8E8"/>
<stop offset="1" stop-color="#727272"/>
</linearGradient>
<linearGradient id="paint24_linear_376_100" x1="76.1575" y1="121.001" x2="76.1575" y2="130.894" gradientUnits="userSpaceOnUse">
<stop stop-color="#E8E8E8"/>
<stop offset="1" stop-color="#727272"/>
</linearGradient>
<linearGradient id="paint25_linear_376_100" x1="81.7627" y1="120.671" x2="81.7627" y2="130.894" gradientUnits="userSpaceOnUse">
<stop stop-color="#E8E8E8"/>
<stop offset="1" stop-color="#727272"/>
</linearGradient>
<linearGradient id="paint26_linear_376_100" x1="87.1525" y1="122.446" x2="87.1525" y2="128.877" gradientUnits="userSpaceOnUse">
<stop stop-color="#E8E8E8"/>
<stop offset="1" stop-color="#727272"/>
</linearGradient>
<linearGradient id="paint27_linear_376_100" x1="84.3498" y1="125.744" x2="84.3498" y2="135.637" gradientUnits="userSpaceOnUse">
<stop stop-color="#E8E8E8"/>
<stop offset="1" stop-color="#727272"/>
</linearGradient>
<linearGradient id="paint28_linear_376_100" x1="89.9551" y1="125.414" x2="89.9551" y2="135.637" gradientUnits="userSpaceOnUse">
<stop stop-color="#E8E8E8"/>
<stop offset="1" stop-color="#727272"/>
</linearGradient>
<linearGradient id="paint29_linear_376_100" x1="95.3449" y1="127.189" x2="95.3449" y2="133.62" gradientUnits="userSpaceOnUse">
<stop stop-color="#E8E8E8"/>
<stop offset="1" stop-color="#727272"/>
</linearGradient>
<linearGradient id="paint30_linear_376_100" x1="92.5422" y1="130.487" x2="92.5422" y2="140.38" gradientUnits="userSpaceOnUse">
<stop stop-color="#E8E8E8"/>
<stop offset="1" stop-color="#727272"/>
</linearGradient>
<linearGradient id="paint31_linear_376_100" x1="98.1474" y1="130.157" x2="98.1474" y2="140.38" gradientUnits="userSpaceOnUse">
<stop stop-color="#E8E8E8"/>
<stop offset="1" stop-color="#727272"/>
</linearGradient>
<linearGradient id="paint32_linear_376_100" x1="103.537" y1="131.932" x2="103.537" y2="138.363" gradientUnits="userSpaceOnUse">
<stop stop-color="#E8E8E8"/>
<stop offset="1" stop-color="#727272"/>
</linearGradient>
<linearGradient id="paint33_linear_376_100" x1="100.734" y1="135.229" x2="100.734" y2="145.123" gradientUnits="userSpaceOnUse">
<stop stop-color="#E8E8E8"/>
<stop offset="1" stop-color="#727272"/>
</linearGradient>
<linearGradient id="paint34_linear_376_100" x1="106.34" y1="134.9" x2="106.34" y2="145.123" gradientUnits="userSpaceOnUse">
<stop stop-color="#E8E8E8"/>
<stop offset="1" stop-color="#727272"/>
</linearGradient>
<linearGradient id="paint35_linear_376_100" x1="111.73" y1="136.675" x2="111.73" y2="143.106" gradientUnits="userSpaceOnUse">
<stop stop-color="#E8E8E8"/>
<stop offset="1" stop-color="#727272"/>
</linearGradient>
<linearGradient id="paint36_linear_376_100" x1="108.927" y1="139.973" x2="108.927" y2="149.866" gradientUnits="userSpaceOnUse">
<stop stop-color="#E8E8E8"/>
<stop offset="1" stop-color="#727272"/>
</linearGradient>
<linearGradient id="paint37_linear_376_100" x1="114.532" y1="139.643" x2="114.532" y2="149.866" gradientUnits="userSpaceOnUse">
<stop stop-color="#E8E8E8"/>
<stop offset="1" stop-color="#727272"/>
</linearGradient>
<linearGradient id="paint38_linear_376_100" x1="129.922" y1="83.4039" x2="137.152" y2="71.7665" gradientUnits="userSpaceOnUse">
<stop offset="0.132597" stop-color="#C4C4C4" stop-opacity="0"/>
<stop offset="1" stop-color="#484848"/>
</linearGradient>
<linearGradient id="paint39_linear_376_100" x1="168.718" y1="62.6218" x2="168.718" y2="69.2157" gradientUnits="userSpaceOnUse">
<stop stop-color="#E8E8E8"/>
<stop offset="1" stop-color="#727272"/>
</linearGradient>
<linearGradient id="paint40_linear_376_100" x1="165.844" y1="66.0027" x2="165.844" y2="76.1471" gradientUnits="userSpaceOnUse">
<stop stop-color="#E8E8E8"/>
<stop offset="1" stop-color="#727272"/>
</linearGradient>
<linearGradient id="paint41_linear_376_100" x1="171.592" y1="65.6646" x2="171.592" y2="76.1471" gradientUnits="userSpaceOnUse">
<stop stop-color="#E8E8E8"/>
<stop offset="1" stop-color="#727272"/>
</linearGradient>
<linearGradient id="paint42_linear_376_100" x1="177.199" y1="67.7959" x2="177.199" y2="74.2265" gradientUnits="userSpaceOnUse">
<stop stop-color="#E8E8E8"/>
<stop offset="1" stop-color="#727272"/>
</linearGradient>
<linearGradient id="paint43_linear_376_100" x1="174.396" y1="71.0933" x2="174.396" y2="80.9865" gradientUnits="userSpaceOnUse">
<stop stop-color="#E8E8E8"/>
<stop offset="1" stop-color="#727272"/>
</linearGradient>
<linearGradient id="paint44_linear_376_100" x1="180.002" y1="70.7634" x2="180.002" y2="80.9864" gradientUnits="userSpaceOnUse">
<stop stop-color="#E8E8E8"/>
<stop offset="1" stop-color="#727272"/>
</linearGradient>
<linearGradient id="paint45_linear_376_100" x1="185.391" y1="72.5388" x2="185.391" y2="78.9694" gradientUnits="userSpaceOnUse">
<stop stop-color="#E8E8E8"/>
<stop offset="1" stop-color="#727272"/>
</linearGradient>
<linearGradient id="paint46_linear_376_100" x1="182.589" y1="75.8362" x2="182.589" y2="85.7294" gradientUnits="userSpaceOnUse">
<stop stop-color="#E8E8E8"/>
<stop offset="1" stop-color="#727272"/>
</linearGradient>
<linearGradient id="paint47_linear_376_100" x1="188.194" y1="75.5063" x2="188.194" y2="85.7293" gradientUnits="userSpaceOnUse">
<stop stop-color="#E8E8E8"/>
<stop offset="1" stop-color="#727272"/>
</linearGradient>
<linearGradient id="paint48_linear_376_100" x1="193.584" y1="77.282" x2="193.584" y2="83.7126" gradientUnits="userSpaceOnUse">
<stop stop-color="#E8E8E8"/>
<stop offset="1" stop-color="#727272"/>
</linearGradient>
<linearGradient id="paint49_linear_376_100" x1="190.781" y1="80.5793" x2="190.781" y2="90.4725" gradientUnits="userSpaceOnUse">
<stop stop-color="#E8E8E8"/>
<stop offset="1" stop-color="#727272"/>
</linearGradient>
<linearGradient id="paint50_linear_376_100" x1="196.386" y1="80.2495" x2="196.386" y2="90.4725" gradientUnits="userSpaceOnUse">
<stop stop-color="#E8E8E8"/>
<stop offset="1" stop-color="#727272"/>
</linearGradient>
<linearGradient id="paint51_linear_376_100" x1="201.776" y1="82.0249" x2="201.776" y2="88.4555" gradientUnits="userSpaceOnUse">
<stop stop-color="#E8E8E8"/>
<stop offset="1" stop-color="#727272"/>
</linearGradient>
<linearGradient id="paint52_linear_376_100" x1="198.973" y1="85.3223" x2="198.973" y2="95.2155" gradientUnits="userSpaceOnUse">
<stop stop-color="#E8E8E8"/>
<stop offset="1" stop-color="#727272"/>
</linearGradient>
<linearGradient id="paint53_linear_376_100" x1="204.579" y1="84.9924" x2="204.579" y2="95.2154" gradientUnits="userSpaceOnUse">
<stop stop-color="#E8E8E8"/>
<stop offset="1" stop-color="#727272"/>
</linearGradient>
<linearGradient id="paint54_linear_376_100" x1="209.968" y1="86.7678" x2="209.968" y2="93.1984" gradientUnits="userSpaceOnUse">
<stop stop-color="#E8E8E8"/>
<stop offset="1" stop-color="#727272"/>
</linearGradient>
<linearGradient id="paint55_linear_376_100" x1="207.166" y1="90.0649" x2="207.166" y2="99.9581" gradientUnits="userSpaceOnUse">
<stop stop-color="#E8E8E8"/>
<stop offset="1" stop-color="#727272"/>
</linearGradient>
<linearGradient id="paint56_linear_376_100" x1="212.771" y1="89.7354" x2="212.771" y2="99.9583" gradientUnits="userSpaceOnUse">
<stop stop-color="#E8E8E8"/>
<stop offset="1" stop-color="#727272"/>
</linearGradient>
<linearGradient id="paint57_linear_376_100" x1="316.293" y1="143.881" x2="327.703" y2="125.514" gradientUnits="userSpaceOnUse">
<stop offset="0.132597" stop-color="#C4C4C4" stop-opacity="0"/>
<stop offset="1" stop-color="#484848"/>
</linearGradient>
<linearGradient id="paint58_linear_376_100" x1="478.786" y1="171.662" x2="478.786" y2="181.811" gradientUnits="userSpaceOnUse">
<stop stop-color="#E8E8E8"/>
<stop offset="1" stop-color="#727272"/>
</linearGradient>
<linearGradient id="paint59_linear_376_100" x1="474.362" y1="176.865" x2="474.362" y2="192.479" gradientUnits="userSpaceOnUse">
<stop stop-color="#E8E8E8"/>
<stop offset="1" stop-color="#727272"/>
</linearGradient>
<linearGradient id="paint60_linear_376_100" x1="483.209" y1="176.345" x2="483.209" y2="192.479" gradientUnits="userSpaceOnUse">
<stop stop-color="#E8E8E8"/>
<stop offset="1" stop-color="#727272"/>
</linearGradient>
<linearGradient id="paint61_linear_376_100" x1="427.068" y1="141.72" x2="427.068" y2="151.869" gradientUnits="userSpaceOnUse">
<stop stop-color="#E8E8E8"/>
<stop offset="1" stop-color="#727272"/>
</linearGradient>
<linearGradient id="paint62_linear_376_100" x1="422.644" y1="146.924" x2="422.644" y2="162.537" gradientUnits="userSpaceOnUse">
<stop stop-color="#E8E8E8"/>
<stop offset="1" stop-color="#727272"/>
</linearGradient>
<linearGradient id="paint63_linear_376_100" x1="431.491" y1="146.403" x2="431.491" y2="162.538" gradientUnits="userSpaceOnUse">
<stop stop-color="#E8E8E8"/>
<stop offset="1" stop-color="#727272"/>
</linearGradient>
<linearGradient id="paint64_linear_376_100" x1="439.997" y1="149.205" x2="439.997" y2="159.354" gradientUnits="userSpaceOnUse">
<stop stop-color="#E8E8E8"/>
<stop offset="1" stop-color="#727272"/>
</linearGradient>
<linearGradient id="paint65_linear_376_100" x1="435.574" y1="154.409" x2="435.574" y2="170.023" gradientUnits="userSpaceOnUse">
<stop stop-color="#E8E8E8"/>
<stop offset="1" stop-color="#727272"/>
</linearGradient>
<linearGradient id="paint66_linear_376_100" x1="444.42" y1="153.889" x2="444.42" y2="170.023" gradientUnits="userSpaceOnUse">
<stop stop-color="#E8E8E8"/>
<stop offset="1" stop-color="#727272"/>
</linearGradient>
<linearGradient id="paint67_linear_376_100" x1="452.927" y1="156.691" x2="452.927" y2="166.84" gradientUnits="userSpaceOnUse">
<stop stop-color="#E8E8E8"/>
<stop offset="1" stop-color="#727272"/>
</linearGradient>
<linearGradient id="paint68_linear_376_100" x1="448.503" y1="161.895" x2="448.503" y2="177.508" gradientUnits="userSpaceOnUse">
<stop stop-color="#E8E8E8"/>
<stop offset="1" stop-color="#727272"/>
</linearGradient>
<linearGradient id="paint69_linear_376_100" x1="457.35" y1="161.374" x2="457.35" y2="177.508" gradientUnits="userSpaceOnUse">
<stop stop-color="#E8E8E8"/>
<stop offset="1" stop-color="#727272"/>
</linearGradient>
<linearGradient id="paint70_linear_376_100" x1="465.856" y1="164.176" x2="465.856" y2="174.325" gradientUnits="userSpaceOnUse">
<stop stop-color="#E8E8E8"/>
<stop offset="1" stop-color="#727272"/>
</linearGradient>
<linearGradient id="paint71_linear_376_100" x1="461.433" y1="169.38" x2="461.433" y2="184.994" gradientUnits="userSpaceOnUse">
<stop stop-color="#E8E8E8"/>
<stop offset="1" stop-color="#727272"/>
</linearGradient>
<linearGradient id="paint72_linear_376_100" x1="470.279" y1="168.86" x2="470.279" y2="184.994" gradientUnits="userSpaceOnUse">
<stop stop-color="#E8E8E8"/>
<stop offset="1" stop-color="#727272"/>
</linearGradient>
<linearGradient id="paint73_linear_376_100" x1="365.423" y1="207.728" x2="365.423" y2="224.444" gradientUnits="userSpaceOnUse">
<stop stop-color="#E8E8E8"/>
<stop offset="1" stop-color="#727272"/>
</linearGradient>
<linearGradient id="paint74_linear_376_100" x1="358.137" y1="216.299" x2="358.137" y2="242.016" gradientUnits="userSpaceOnUse">
<stop stop-color="#E8E8E8"/>
<stop offset="1" stop-color="#727272"/>
</linearGradient>
<linearGradient id="paint75_linear_376_100" x1="372.708" y1="215.442" x2="372.708" y2="242.016" gradientUnits="userSpaceOnUse">
<stop stop-color="#E8E8E8"/>
<stop offset="1" stop-color="#727272"/>
</linearGradient>
<linearGradient id="paint76_linear_376_100" x1="386.719" y1="220.057" x2="386.719" y2="236.773" gradientUnits="userSpaceOnUse">
<stop stop-color="#E8E8E8"/>
<stop offset="1" stop-color="#727272"/>
</linearGradient>
<linearGradient id="paint77_linear_376_100" x1="379.433" y1="228.628" x2="379.433" y2="254.345" gradientUnits="userSpaceOnUse">
<stop stop-color="#E8E8E8"/>
<stop offset="1" stop-color="#727272"/>
</linearGradient>
<linearGradient id="paint78_linear_376_100" x1="394.004" y1="227.771" x2="394.004" y2="254.345" gradientUnits="userSpaceOnUse">
<stop stop-color="#E8E8E8"/>
<stop offset="1" stop-color="#727272"/>
</linearGradient>
<linearGradient id="paint79_linear_376_100" x1="408.014" y1="232.386" x2="408.014" y2="249.102" gradientUnits="userSpaceOnUse">
<stop stop-color="#E8E8E8"/>
<stop offset="1" stop-color="#727272"/>
</linearGradient>
<linearGradient id="paint80_linear_376_100" x1="400.728" y1="240.957" x2="400.728" y2="266.674" gradientUnits="userSpaceOnUse">
<stop stop-color="#E8E8E8"/>
<stop offset="1" stop-color="#727272"/>
</linearGradient>
<linearGradient id="paint81_linear_376_100" x1="415.299" y1="240.1" x2="415.299" y2="266.674" gradientUnits="userSpaceOnUse">
<stop stop-color="#E8E8E8"/>
<stop offset="1" stop-color="#727272"/>
</linearGradient>
<linearGradient id="paint82_linear_376_100" x1="429.31" y1="244.715" x2="429.31" y2="261.431" gradientUnits="userSpaceOnUse">
<stop stop-color="#E8E8E8"/>
<stop offset="1" stop-color="#727272"/>
</linearGradient>
<linearGradient id="paint83_linear_376_100" x1="422.024" y1="253.286" x2="422.024" y2="279.003" gradientUnits="userSpaceOnUse">
<stop stop-color="#E8E8E8"/>
<stop offset="1" stop-color="#727272"/>
</linearGradient>
<linearGradient id="paint84_linear_376_100" x1="436.594" y1="252.429" x2="436.594" y2="279.003" gradientUnits="userSpaceOnUse">
<stop stop-color="#E8E8E8"/>
<stop offset="1" stop-color="#727272"/>
</linearGradient>
<linearGradient id="paint85_linear_376_100" x1="450.605" y1="257.044" x2="450.605" y2="273.76" gradientUnits="userSpaceOnUse">
<stop stop-color="#E8E8E8"/>
<stop offset="1" stop-color="#727272"/>
</linearGradient>
<linearGradient id="paint86_linear_376_100" x1="443.32" y1="265.615" x2="443.32" y2="291.332" gradientUnits="userSpaceOnUse">
<stop stop-color="#E8E8E8"/>
<stop offset="1" stop-color="#727272"/>
</linearGradient>
<linearGradient id="paint87_linear_376_100" x1="457.89" y1="264.758" x2="457.89" y2="291.332" gradientUnits="userSpaceOnUse">
<stop stop-color="#E8E8E8"/>
<stop offset="1" stop-color="#727272"/>
</linearGradient>
<linearGradient id="paint88_linear_376_100" x1="182.141" y1="210.216" x2="201.01" y2="179.843" gradientUnits="userSpaceOnUse">
<stop offset="0.132597" stop-color="#C4C4C4" stop-opacity="0"/>
<stop offset="1" stop-color="#484848"/>
</linearGradient>
<linearGradient id="paint89_linear_376_100" x1="104.659" y1="253.441" x2="116.069" y2="235.074" gradientUnits="userSpaceOnUse">
<stop offset="0.132597" stop-color="#C4C4C4" stop-opacity="0"/>
<stop offset="1" stop-color="#484848"/>
</linearGradient>
<linearGradient id="paint90_linear_376_100" x1="215.433" y1="251.28" x2="215.433" y2="261.429" gradientUnits="userSpaceOnUse">
<stop stop-color="#E8E8E8"/>
<stop offset="1" stop-color="#727272"/>
</linearGradient>
<linearGradient id="paint91_linear_376_100" x1="211.01" y1="256.484" x2="211.01" y2="272.098" gradientUnits="userSpaceOnUse">
<stop stop-color="#E8E8E8"/>
<stop offset="1" stop-color="#727272"/>
</linearGradient>
<linearGradient id="paint92_linear_376_100" x1="219.856" y1="255.964" x2="219.856" y2="272.098" gradientUnits="userSpaceOnUse">
<stop stop-color="#E8E8E8"/>
<stop offset="1" stop-color="#727272"/>
</linearGradient>
<linearGradient id="paint93_linear_376_100" x1="228.363" y1="258.766" x2="228.363" y2="268.915" gradientUnits="userSpaceOnUse">
<stop stop-color="#E8E8E8"/>
<stop offset="1" stop-color="#727272"/>
</linearGradient>
<linearGradient id="paint94_linear_376_100" x1="223.939" y1="263.969" x2="223.939" y2="279.583" gradientUnits="userSpaceOnUse">
<stop stop-color="#E8E8E8"/>
<stop offset="1" stop-color="#727272"/>
</linearGradient>
<linearGradient id="paint95_linear_376_100" x1="232.786" y1="263.449" x2="232.786" y2="279.583" gradientUnits="userSpaceOnUse">
<stop stop-color="#E8E8E8"/>
<stop offset="1" stop-color="#727272"/>
</linearGradient>
<linearGradient id="paint96_linear_376_100" x1="241.292" y1="266.251" x2="241.292" y2="276.4" gradientUnits="userSpaceOnUse">
<stop stop-color="#E8E8E8"/>
<stop offset="1" stop-color="#727272"/>
</linearGradient>
<linearGradient id="paint97_linear_376_100" x1="236.869" y1="271.455" x2="236.869" y2="287.069" gradientUnits="userSpaceOnUse">
<stop stop-color="#E8E8E8"/>
<stop offset="1" stop-color="#727272"/>
</linearGradient>
<linearGradient id="paint98_linear_376_100" x1="245.715" y1="270.935" x2="245.715" y2="287.069" gradientUnits="userSpaceOnUse">
<stop stop-color="#E8E8E8"/>
<stop offset="1" stop-color="#727272"/>
</linearGradient>
<linearGradient id="paint99_linear_376_100" x1="254.221" y1="273.737" x2="254.221" y2="283.886" gradientUnits="userSpaceOnUse">
<stop stop-color="#E8E8E8"/>
<stop offset="1" stop-color="#727272"/>
</linearGradient>
<linearGradient id="paint100_linear_376_100" x1="249.798" y1="278.94" x2="249.798" y2="294.554" gradientUnits="userSpaceOnUse">
<stop stop-color="#E8E8E8"/>
<stop offset="1" stop-color="#727272"/>
</linearGradient>
<linearGradient id="paint101_linear_376_100" x1="258.644" y1="278.42" x2="258.644" y2="294.554" gradientUnits="userSpaceOnUse">
<stop stop-color="#E8E8E8"/>
<stop offset="1" stop-color="#727272"/>
</linearGradient>
<linearGradient id="paint102_linear_376_100" x1="267.151" y1="281.222" x2="267.151" y2="291.371" gradientUnits="userSpaceOnUse">
<stop stop-color="#E8E8E8"/>
<stop offset="1" stop-color="#727272"/>
</linearGradient>
<linearGradient id="paint103_linear_376_100" x1="262.728" y1="286.426" x2="262.728" y2="302.04" gradientUnits="userSpaceOnUse">
<stop stop-color="#E8E8E8"/>
<stop offset="1" stop-color="#727272"/>
</linearGradient>
<linearGradient id="paint104_linear_376_100" x1="271.574" y1="285.906" x2="271.574" y2="302.04" gradientUnits="userSpaceOnUse">
<stop stop-color="#E8E8E8"/>
<stop offset="1" stop-color="#727272"/>
</linearGradient>
<linearGradient id="paint105_linear_376_100" x1="104.488" y1="300.03" x2="101.677" y2="311.53" gradientUnits="userSpaceOnUse">
<stop stop-color="#9237E3"/>
<stop offset="1" stop-color="#48E6F3"/>
</linearGradient>
<linearGradient id="paint106_linear_376_100" x1="99.6326" y1="309.741" x2="107.129" y2="308.037" gradientUnits="userSpaceOnUse">
<stop stop-color="#51E6FF"/>
<stop offset="1" stop-color="#71D4FF" stop-opacity="0"/>
</linearGradient>
<radialGradient id="paint107_radial_376_100" cx="0" cy="0" r="1" gradientUnits="userSpaceOnUse" gradientTransform="translate(97.0771 307.398) rotate(34.5085) scale(4.13499 7.26735)">
<stop/>
<stop offset="0.7" stop-opacity="0"/>
</radialGradient>
<radialGradient id="paint108_radial_376_100" cx="0" cy="0" r="1" gradientUnits="userSpaceOnUse" gradientTransform="translate(96.0548 306.759) rotate(31.866) scale(7.42236 13.045)">
<stop offset="0.33"/>
<stop offset="0.6" stop-opacity="0"/>
</radialGradient>
<linearGradient id="paint109_linear_376_100" x1="97.5882" y1="303.096" x2="101.933" y2="296.963" gradientUnits="userSpaceOnUse">
<stop stop-color="#6E06E9"/>
<stop offset="1" stop-color="#AB5ADD" stop-opacity="0"/>
</linearGradient>
<radialGradient id="paint110_radial_376_100" cx="0" cy="0" r="1" gradientUnits="userSpaceOnUse" gradientTransform="translate(92.6474 299.263) rotate(-9.73942) scale(11.5818 30.45)">
<stop stop-color="#6D05E8"/>
<stop offset="1" stop-color="#6D05E8" stop-opacity="0"/>
</radialGradient>
<linearGradient id="paint111_linear_376_100" x1="104.488" y1="300.03" x2="101.677" y2="311.53" gradientUnits="userSpaceOnUse">
<stop stop-color="#9237E3"/>
<stop offset="1" stop-color="#48E6F3"/>
</linearGradient>
<linearGradient id="paint112_linear_376_100" x1="99.6326" y1="309.741" x2="107.129" y2="308.037" gradientUnits="userSpaceOnUse">
<stop stop-color="#51E6FF"/>
<stop offset="1" stop-color="#71D4FF" stop-opacity="0"/>
</linearGradient>
<radialGradient id="paint113_radial_376_100" cx="0" cy="0" r="1" gradientUnits="userSpaceOnUse" gradientTransform="translate(97.0771 307.398) rotate(34.5085) scale(4.13499 7.26735)">
<stop/>
<stop offset="0.7" stop-opacity="0"/>
</radialGradient>
<radialGradient id="paint114_radial_376_100" cx="0" cy="0" r="1" gradientUnits="userSpaceOnUse" gradientTransform="translate(96.0548 306.759) rotate(31.866) scale(7.42236 13.045)">
<stop offset="0.33"/>
<stop offset="0.6" stop-opacity="0"/>
</radialGradient>
<linearGradient id="paint115_linear_376_100" x1="97.5882" y1="303.096" x2="101.933" y2="296.963" gradientUnits="userSpaceOnUse">
<stop stop-color="#6E06E9"/>
<stop offset="1" stop-color="#AB5ADD" stop-opacity="0"/>
</linearGradient>
<radialGradient id="paint116_radial_376_100" cx="0" cy="0" r="1" gradientUnits="userSpaceOnUse" gradientTransform="translate(92.6474 299.263) rotate(-9.73942) scale(11.5818 30.45)">
<stop stop-color="#6D05E8"/>
<stop offset="1" stop-color="#6D05E8" stop-opacity="0"/>
</radialGradient>
</defs>
</svg>
