<svg width="58" height="58" viewBox="0 0 58 58" fill="none" xmlns="http://www.w3.org/2000/svg">
<path opacity="0.933" fill-rule="evenodd" clip-rule="evenodd" d="M15.3496 1.75579C22.8875 1.34046 28.2684 4.51233 31.4922 11.2714C33.2071 15.9924 32.8862 20.5614 30.5293 24.9785C31.5189 27.3997 32.5195 29.8164 33.5312 32.2285C33.7012 33.2669 33.2669 33.7011 32.2285 33.5312C29.8248 32.4993 27.4081 31.4986 24.9785 30.5292C21.1891 32.6537 17.1864 33.1635 12.9707 32.0585C6.65888 29.9752 2.93948 25.6517 1.81248 19.0878C1.2794 13.2052 3.29958 8.42859 7.87302 4.75775C10.1324 3.15535 12.6245 2.1547 15.3496 1.75579ZM30.7558 30.7558C28.8292 29.9529 26.8845 29.1977 24.9219 28.4902C23.9591 28.9051 22.9962 29.3393 22.0332 29.7929C16.1329 31.7115 11.0541 30.4088 6.79685 25.8847C3.84245 22.1392 2.97397 17.9478 4.19138 13.3105C6.36988 7.22558 10.6935 3.97819 17.1621 3.56829C23.1405 3.94069 27.3508 6.84824 29.7929 12.2909C31.5538 17.5712 30.6286 22.3101 27.0176 26.5077C27.4373 26.9656 27.8904 27.3998 28.3769 27.8105C28.5795 27.551 28.806 27.3056 29.0566 27.0742C29.1509 26.9962 29.2263 27.0151 29.2832 27.1308C29.8191 28.3236 30.31 29.532 30.7558 30.7558ZM16.1426 14.1034C18.0044 13.9176 19.7037 14.3518 21.2402 15.4062C21.6712 16.5466 21.6901 17.6983 21.2969 18.8613C18.5732 20.6519 15.8357 20.6708 13.084 18.9179C12.6529 17.7775 12.6341 16.6258 13.0273 15.4628C13.9886 14.8021 15.0271 14.3489 16.1426 14.1034ZM16.8222 16.3691C17.8814 16.3538 18.1835 16.8258 17.7285 17.7851C16.7606 18.1614 16.3264 17.8405 16.4258 16.8222C16.5039 16.6126 16.636 16.4615 16.8222 16.3691ZM10.7051 16.5956C10.8343 16.9513 10.8532 17.3289 10.7617 17.7284C10.3857 17.5717 10.027 17.3829 9.68552 17.162C10.023 16.9505 10.3628 16.7618 10.7051 16.5956ZM23.5058 16.5956C23.9285 16.762 24.3439 16.9508 24.7519 17.162C24.3594 17.362 23.9629 17.5507 23.5625 17.7284C23.5061 17.3527 23.4871 16.9751 23.5058 16.5956Z" fill="url(#paint0_linear_159_12820)"/>
<path opacity="0.941" fill-rule="evenodd" clip-rule="evenodd" d="M15.916 12.1778C17.6056 12.007 19.2293 12.2525 20.7871 12.9141C23.2623 14.4536 25.9055 15.6241 28.7168 16.4258C28.9353 16.7947 28.992 17.1911 28.8867 17.6153C28.8301 17.8229 28.6979 17.9551 28.4902 18.0117C25.7427 18.7508 23.175 19.8836 20.7871 21.4102C18.3705 22.392 15.9537 22.392 13.5371 21.4102C11.0631 19.8714 8.41987 18.7008 5.60743 17.8985C5.38896 17.5296 5.33232 17.1331 5.43751 16.709C5.49415 16.5014 5.62631 16.3692 5.83399 16.3125C8.57065 15.5481 11.1384 14.4153 13.5371 12.9141C14.3278 12.6133 15.1208 12.368 15.916 12.1778ZM16.1426 14.1035C15.0271 14.349 13.9887 14.8021 13.0273 15.4629C12.6341 16.6259 12.653 17.7776 13.084 18.918C15.8357 20.6709 18.5733 20.652 21.2969 18.8614C21.6901 17.6984 21.6713 16.5467 21.2402 15.4063C19.7037 14.3519 18.0045 13.9176 16.1426 14.1035ZM16.8223 16.3692C16.636 16.4616 16.504 16.6127 16.4258 16.8223C16.3264 17.8406 16.7606 18.1615 17.7285 17.7852C18.1836 16.8259 17.8815 16.3539 16.8223 16.3692ZM10.7051 16.5957C10.3629 16.7619 10.023 16.9506 9.68555 17.1621C10.0271 17.383 10.3858 17.5718 10.7617 17.7285C10.8532 17.329 10.8343 16.9514 10.7051 16.5957ZM23.5059 16.5957C23.4872 16.9752 23.5061 17.3528 23.5625 17.7285C23.963 17.5508 24.3594 17.3621 24.752 17.1621C24.3439 16.9509 23.9285 16.7621 23.5059 16.5957Z" fill="url(#paint1_linear_159_12820)"/>
<path opacity="0.936" fill-rule="evenodd" clip-rule="evenodd" d="M49.7871 13.5371C51.8368 13.4835 53.8759 13.5402 55.9043 13.707C55.9752 13.792 56.0318 13.8865 56.0742 13.9902C56.1309 15.9534 56.1498 17.9169 56.1309 19.8809C55.5267 19.8809 54.9225 19.8809 54.3184 19.8809C54.3372 18.8607 54.3184 17.8411 54.2617 16.8223C50.3346 20.7494 46.4076 24.6764 42.4805 28.6035C42.849 30.0237 42.4903 31.2132 41.4043 32.1719C41.1531 32.3163 40.8888 32.4296 40.6113 32.5117C39.9273 32.5651 39.2476 32.5651 38.5723 32.5117C36.25 34.834 33.9277 37.1563 31.6055 39.4785C31.6024 39.8901 31.6212 40.3055 31.6621 40.7246C31.4301 42.8237 30.2596 43.7112 28.1504 43.3867C26.8438 42.9288 26.1641 42.0037 26.1113 40.6113C24.1354 39.765 22.1529 38.9342 20.1641 38.1191C19.2124 38.9152 18.1362 39.1228 16.9355 38.7422C16.6327 38.6288 16.3683 38.4589 16.1426 38.2324C13.2829 39.6529 10.432 41.0877 7.58984 42.5371C7.30664 41.9707 7.02344 41.4043 6.74023 40.8379C9.55463 39.3741 12.3866 37.9391 15.2363 36.5332C15.5861 33.7904 17.0588 32.903 19.6543 33.8711C20.4444 34.4885 20.8598 35.3004 20.9004 36.3066C22.9137 37.2203 24.9528 38.032 27.0176 38.7422C27.3238 38.4002 27.7013 38.1736 28.1504 38.0625C28.8344 38.0091 29.5141 38.0091 30.1895 38.0625C32.5117 35.7402 34.834 33.418 37.1562 31.0957C36.7877 29.6755 37.1464 28.486 38.2324 27.5273C38.4836 27.3829 38.748 27.2696 39.0254 27.1875C39.7094 27.1341 40.3891 27.1341 41.0644 27.1875C44.9916 23.2604 48.9186 19.3334 52.8457 15.4063C51.8268 15.3496 50.8073 15.3308 49.7871 15.3496C49.7871 14.7455 49.7871 14.1412 49.7871 13.5371ZM39.4785 29.0566C40.5377 29.0414 40.8398 29.5134 40.3848 30.4727C39.4169 30.849 38.9827 30.5281 39.082 29.5098C39.1602 29.3002 39.2923 29.1491 39.4785 29.0566ZM17.7285 35.4004C18.7877 35.3851 19.0898 35.8571 18.6348 36.8164C17.6669 37.1927 17.2327 36.8718 17.332 35.8535C17.4102 35.6439 17.5423 35.4928 17.7285 35.4004ZM28.6035 39.9316C29.6627 39.9164 29.9648 40.3884 29.5098 41.3477C28.5419 41.724 28.1077 41.4031 28.207 40.3848C28.2852 40.1752 28.4173 40.0241 28.6035 39.9316Z" fill="url(#paint2_linear_159_12820)"/>
<path opacity="0.932" fill-rule="evenodd" clip-rule="evenodd" d="M16.3692 14.4434C18.0533 14.1616 19.205 14.8034 19.8242 16.3692C20.162 18.0544 19.539 19.2061 17.9551 19.8243C16.2699 20.1621 15.1182 19.539 14.5 17.9551C14.1767 16.2596 14.7998 15.089 16.3692 14.4434ZM16.8223 16.3692C16.636 16.4616 16.504 16.6127 16.4258 16.8223C16.3264 17.8406 16.7607 18.1615 17.7285 17.7852C18.1836 16.8259 17.8815 16.3539 16.8223 16.3692Z" fill="url(#paint3_linear_159_12820)"/>
<path opacity="0.998" fill-rule="evenodd" clip-rule="evenodd" d="M46.6152 26.2246C49.3342 26.2057 52.053 26.2246 54.7715 26.2813C54.9791 26.3379 55.1113 26.4701 55.168 26.6778C55.2246 35.8913 55.2435 45.1048 55.2246 54.3184C55.5267 54.3184 55.8287 54.3184 56.1309 54.3184C56.1309 54.9225 56.1309 55.5267 56.1309 56.1309C38.0059 56.1309 19.8809 56.1309 1.75586 56.1309C1.75586 55.5267 1.75586 54.9225 1.75586 54.3184C2.05795 54.3184 2.36002 54.3184 2.66211 54.3184C2.64324 51.1463 2.66211 47.9744 2.71875 44.8027C2.77539 44.5951 2.90756 44.4629 3.11523 44.4063C5.83398 44.3307 8.55273 44.3307 11.2715 44.4063C11.4791 44.4629 11.6113 44.5951 11.668 44.8027C11.7246 47.9744 11.7435 51.1463 11.7246 54.3184C12.3287 54.3184 12.933 54.3184 13.5371 54.3184C13.5182 49.6359 13.5371 44.9536 13.5938 40.2715C13.6504 40.0639 13.7826 39.9317 13.9902 39.875C16.709 39.7995 19.4277 39.7995 22.1465 39.875C22.3541 39.9317 22.4863 40.0639 22.543 40.2715C22.5996 44.9536 22.6185 49.6359 22.5996 54.3184C23.2037 54.3184 23.808 54.3184 24.4121 54.3184C24.3932 51.4483 24.4121 48.5785 24.4688 45.709C24.5254 45.5014 24.6576 45.3692 24.8652 45.3125C27.584 45.237 30.3027 45.237 33.0215 45.3125C33.1252 45.3549 33.2197 45.4115 33.3047 45.4824C33.4726 48.4177 33.5292 51.363 33.4746 54.3184C34.0787 54.3184 34.683 54.3184 35.2871 54.3184C35.2682 49.0318 35.2871 43.7453 35.3438 38.459C35.4004 38.2514 35.5326 38.1192 35.7402 38.0625C38.459 37.987 41.1777 37.987 43.8965 38.0625C44.1041 38.1192 44.2363 38.2514 44.293 38.459C44.3496 43.7453 44.3685 49.0318 44.3496 54.3184C44.9537 54.3184 45.558 54.3184 46.1621 54.3184C46.1432 45.1048 46.1621 35.8913 46.2188 26.6778C46.2969 26.4682 46.429 26.3171 46.6152 26.2246ZM47.9746 28.0371C49.7871 28.0371 51.5996 28.0371 53.4121 28.0371C53.4121 36.7975 53.4121 45.558 53.4121 54.3184C51.5996 54.3184 49.7871 54.3184 47.9746 54.3184C47.9746 45.558 47.9746 36.7975 47.9746 28.0371ZM37.0996 39.8184C38.9121 39.8184 40.7246 39.8184 42.5371 39.8184C42.5371 44.6517 42.5371 49.485 42.5371 54.3184C40.7246 54.3184 38.9121 54.3184 37.0996 54.3184C37.0996 49.485 37.0996 44.6517 37.0996 39.8184ZM28.6035 39.9317C28.4173 40.0241 28.2852 40.1752 28.207 40.3848C28.1077 41.4031 28.5419 41.724 29.5098 41.3477C29.9648 40.3884 29.6627 39.9164 28.6035 39.9317ZM15.3496 41.6309C17.1621 41.6309 18.9746 41.6309 20.7871 41.6309C20.7871 45.86 20.7871 50.0892 20.7871 54.3184C18.9746 54.3184 17.1621 54.3184 15.3496 54.3184C15.3496 50.0892 15.3496 45.86 15.3496 41.6309ZM4.47461 46.1621C6.28711 46.1621 8.09961 46.1621 9.91211 46.1621C9.91211 48.8809 9.91211 51.5996 9.91211 54.3184C8.09961 54.3184 6.28711 54.3184 4.47461 54.3184C4.47461 51.5996 4.47461 48.8809 4.47461 46.1621ZM26.2246 47.0684C28.0371 47.0684 29.8496 47.0684 31.6621 47.0684C31.6621 49.485 31.6621 51.9017 31.6621 54.3184C29.8496 54.3184 28.0371 54.3184 26.2246 54.3184C26.2246 51.9017 26.2246 49.485 26.2246 47.0684Z" fill="url(#paint4_linear_159_12820)"/>
<defs>
<linearGradient id="paint0_linear_159_12820" x1="17.648" y1="1.71973" x2="17.648" y2="33.567" gradientUnits="userSpaceOnUse">
<stop stop-color="#2E69FF"/>
<stop offset="1" stop-color="#0AD9BE"/>
</linearGradient>
<linearGradient id="paint1_linear_159_12820" x1="17.1621" y1="12.1252" x2="17.1621" y2="22.1465" gradientUnits="userSpaceOnUse">
<stop stop-color="#2E69FF"/>
<stop offset="1" stop-color="#0AD9BE"/>
</linearGradient>
<linearGradient id="paint2_linear_159_12820" x1="31.4391" y1="13.5176" x2="31.4391" y2="43.4519" gradientUnits="userSpaceOnUse">
<stop stop-color="#2E69FF"/>
<stop offset="1" stop-color="#0AD9BE"/>
</linearGradient>
<linearGradient id="paint3_linear_159_12820" x1="17.1652" y1="14.3789" x2="17.1652" y2="19.9133" gradientUnits="userSpaceOnUse">
<stop stop-color="#2E69FF"/>
<stop offset="1" stop-color="#0AD9BE"/>
</linearGradient>
<linearGradient id="paint4_linear_159_12820" x1="28.9434" y1="26.2175" x2="28.9434" y2="56.1309" gradientUnits="userSpaceOnUse">
<stop stop-color="#2E69FF"/>
<stop offset="1" stop-color="#0AD9BE"/>
</linearGradient>
</defs>
</svg>
